<svg width="162" height="56" fill="none" xmlns="http://www.w3.org/2000/svg"><path opacity=".95" d="M34.64 55H1.84v-7.2c10.08-10.507 16.507-17.573 19.28-21.2 2.827-3.627 4.24-7.04 4.24-10.24 0-2.347-.747-4.213-2.24-5.6-1.493-1.387-3.307-2.08-5.44-2.08-4.693 0-8.48 2.107-11.36 6.32L.88 9.48C4.987 3.72 10.613.84 17.76.84c4.8 0 8.773 1.413 11.92 4.24 3.147 2.773 4.72 6.507 4.72 11.2 0 3.947-1.413 8.027-4.24 12.24-2.773 4.16-7.893 10.373-15.36 18.64h19.84V55zm24.947.96c-3.094 0-5.84-.8-8.24-2.4-2.347-1.6-4.214-3.733-5.6-6.4-1.334-2.72-2.347-5.653-3.04-8.8-.694-3.2-1.04-6.533-1.04-10 0-3.467.346-6.773 1.04-9.92.693-3.2 1.706-6.133 3.04-8.8 1.386-2.667 3.253-4.8 5.6-6.4 2.4-1.6 5.146-2.4 8.24-2.4 4.106 0 7.546 1.413 10.32 4.24 2.827 2.773 4.8 6.16 5.92 10.16 1.173 4 1.76 8.373 1.76 13.12s-.587 9.12-1.76 13.12c-1.12 4-3.093 7.413-5.92 10.24-2.773 2.827-6.213 4.24-10.32 4.24zm0-7.92c5.973 0 8.96-6.56 8.96-19.68 0-13.12-2.987-19.68-8.96-19.68-5.92 0-8.88 6.56-8.88 19.68 0 13.12 2.96 19.68 8.88 19.68zm42.109 7.92c-3.093 0-5.84-.8-8.24-2.4-2.346-1.6-4.213-3.733-5.6-6.4-1.333-2.72-2.346-5.653-3.04-8.8-.693-3.2-1.04-6.533-1.04-10 0-3.467.347-6.773 1.04-9.92.694-3.2 1.707-6.133 3.04-8.8 1.387-2.667 3.254-4.8 5.6-6.4 2.4-1.6 5.147-2.4 8.24-2.4 4.107 0 7.547 1.413 10.32 4.24 2.827 2.773 4.8 6.16 5.92 10.16 1.174 4 1.76 8.373 1.76 13.12s-.586 9.12-1.76 13.12c-1.12 4-3.093 7.413-5.92 10.24-2.773 2.827-6.213 4.24-10.32 4.24zm0-7.92c5.974 0 8.96-6.56 8.96-19.68 0-13.12-2.986-19.68-8.96-19.68-5.92 0-8.88 6.56-8.88 19.68 0 13.12 2.96 19.68 8.88 19.68zm42.11 7.92c-3.094 0-5.84-.8-8.24-2.4-2.347-1.6-4.214-3.733-5.6-6.4-1.334-2.72-2.347-5.653-3.04-8.8-.694-3.2-1.04-6.533-1.04-10 0-3.467.346-6.773 1.04-9.92.693-3.2 1.706-6.133 3.04-8.8 1.386-2.667 3.253-4.8 5.6-6.4 2.4-1.6 5.146-2.4 8.24-2.4 4.106 0 7.546 1.413 10.32 4.24 2.826 2.773 4.8 6.16 5.92 10.16 1.173 4 1.76 8.373 1.76 13.12s-.587 9.12-1.76 13.12c-1.12 4-3.094 7.413-5.92 10.24-2.774 2.827-6.214 4.24-10.32 4.24zm0-7.92c5.973 0 8.96-6.56 8.96-19.68 0-13.12-2.987-19.68-8.96-19.68-5.92 0-8.88 6.56-8.88 19.68 0 13.12 2.96 19.68 8.88 19.68z" fill="#A30C33"/></svg>