<svg width="202" height="56" fill="none" xmlns="http://www.w3.org/2000/svg"><path opacity=".95" d="M18.2 55.96c-3.893 0-7.333-.8-10.32-2.4-2.987-1.653-5.307-3.76-6.96-6.32l5.44-5.52c2.933 4.213 6.747 6.32 11.44 6.32 2.933 0 5.12-.747 6.56-2.24 1.493-1.493 2.24-3.547 2.24-6.16 0-5.333-3.093-8-9.28-8-2.613 0-4.16.053-4.64.16v-8c.533.053 2.027.08 4.48.08 2.613 0 4.72-.613 6.32-1.84 1.6-1.28 2.4-3.12 2.4-5.52 0-2.56-.773-4.507-2.32-5.84-1.493-1.333-3.493-2-6-2-4.267 0-7.84 1.92-10.72 5.76l-5.2-5.12C5.48 3.667 11 .84 18.2.84c5.013 0 9.013 1.253 12 3.76 2.987 2.453 4.48 5.973 4.48 10.56 0 3.04-.96 5.707-2.88 8-1.92 2.24-4.24 3.653-6.96 4.24 2.773.427 5.227 1.84 7.36 4.24 2.133 2.347 3.2 5.28 3.2 8.8 0 4.587-1.547 8.32-4.64 11.2-3.093 2.88-7.28 4.32-12.56 4.32zm41.528 0c-3.094 0-5.84-.8-8.24-2.4-2.347-1.6-4.214-3.733-5.6-6.4-1.334-2.72-2.347-5.653-3.04-8.8-.694-3.2-1.04-6.533-1.04-10 0-3.467.346-6.773 1.04-9.92.693-3.2 1.706-6.133 3.04-8.8 1.386-2.667 3.253-4.8 5.6-6.4 2.4-1.6 5.146-2.4 8.24-2.4 4.106 0 7.546 1.413 10.32 4.24 2.826 2.773 4.8 6.16 5.92 10.16 1.173 4 1.76 8.373 1.76 13.12s-.587 9.12-1.76 13.12c-1.12 4-3.094 7.413-5.92 10.24-2.774 2.827-6.214 4.24-10.32 4.24zm0-7.92c5.973 0 8.96-6.56 8.96-19.68 0-13.12-2.987-19.68-8.96-19.68-5.92 0-8.88 6.56-8.88 19.68 0 13.12 2.96 19.68 8.88 19.68zm39.462 7.92v-6.8c1.653 0 2.933-.88 3.84-2.64.96-1.76 1.653-5.067 2.08-9.92l1.76-20.24h24.96V55h-7.92V23.32h-9.76l-1.04 13.92c-.533 6.827-1.947 11.653-4.24 14.48s-5.52 4.24-9.68 4.24zm57.548 0c-5.28 0-9.493-1.867-12.64-5.6-3.147-3.733-4.72-8.64-4.72-14.72 0-5.76 1.493-10.56 4.48-14.4 3.04-3.893 7.067-5.84 12.08-5.84 5.067 0 9.013 1.92 11.84 5.76s4.24 8.773 4.24 14.8v2.32h-24.56c.16 3.307 1.12 6 2.88 8.08 1.76 2.027 4.16 3.04 7.2 3.04 3.467 0 6.373-1.387 8.72-4.16l3.84 4.8c-3.467 3.947-7.92 5.92-13.36 5.92zm7.52-23.36c-.053-2.827-.773-5.307-2.16-7.44-1.333-2.187-3.413-3.28-6.24-3.28-2.72 0-4.773 1.093-6.16 3.28-1.387 2.187-2.16 4.667-2.32 7.44h16.88zM192.629 55h-8V23.32h-8.72v-6.96h25.44v6.96h-8.72V55z" fill="#A30C33"/></svg>