<svg width="77" height="56" fill="none" xmlns="http://www.w3.org/2000/svg"><path opacity=".95" d="M34.64 55H1.84v-7.2c10.08-10.507 16.507-17.573 19.28-21.2 2.827-3.627 4.24-7.04 4.24-10.24 0-2.347-.747-4.213-2.24-5.6-1.493-1.387-3.307-2.08-5.44-2.08-4.693 0-8.48 2.107-11.36 6.32L.88 9.48C4.987 3.72 10.613.84 17.76.84c4.8 0 8.773 1.413 11.92 4.24 3.147 2.773 4.72 6.507 4.72 11.2 0 3.947-1.413 8.027-4.24 12.24-2.773 4.16-7.893 10.373-15.36 18.64h19.84V55zm24.387.96c-7.413 0-13.067-2.853-16.96-8.56l5.52-5.6c2.826 4.16 6.56 6.24 11.2 6.24 2.613 0 4.72-.933 6.32-2.8 1.6-1.92 2.4-4.24 2.4-6.96 0-3.093-.747-5.493-2.24-7.2-1.44-1.76-3.467-2.64-6.08-2.64-3.52 0-6.56 1.547-9.12 4.64l-6.48-1.84V1.64h29.92V9.4h-21.04v15.84c2.346-2.987 5.6-4.48 9.76-4.48 4.107 0 7.493 1.547 10.16 4.64 2.72 3.04 4.08 7.253 4.08 12.64 0 5.28-1.6 9.6-4.8 12.96-3.2 3.307-7.413 4.96-12.64 4.96z" fill="#A30C33"/></svg>