<svg width="161" height="56" fill="none" xmlns="http://www.w3.org/2000/svg"><path opacity=".95" d="M31 55h-8.8V42.6H.76v-7.44L19.64 1.64H31v33.2h5.6v7.76H31V55zm-8.8-20.16v-24l-13.44 24H22.2zm37.775 21.12c-3.307 0-6.187-.747-8.64-2.24-2.4-1.493-4.32-3.547-5.76-6.16-1.387-2.613-2.427-5.52-3.12-8.72-.64-3.2-.96-6.693-.96-10.48 0-8 1.707-14.587 5.12-19.76 3.413-5.173 8.347-7.76 14.8-7.76 5.6 0 9.973 2.053 13.12 6.16l-4.48 6.48c-2.187-3.2-5.04-4.8-8.56-4.8-3.467 0-6.187 1.813-8.16 5.44-1.92 3.573-2.88 7.84-2.88 12.8v1.2c1.013-1.973 2.56-3.653 4.64-5.04 2.133-1.44 4.427-2.16 6.88-2.16 4.16 0 7.627 1.52 10.4 4.56 2.773 2.987 4.16 7.2 4.16 12.64 0 5.013-1.52 9.253-4.56 12.72-3.04 3.413-7.04 5.12-12 5.12zm-.48-7.92c2.56 0 4.533-.96 5.92-2.88 1.387-1.92 2.08-4.16 2.08-6.72 0-3.36-.773-5.84-2.32-7.44-1.547-1.653-3.493-2.48-5.84-2.48-1.813 0-3.493.64-5.04 1.92-1.493 1.227-2.747 2.8-3.76 4.72.107 2.08.4 4.027.88 5.84.533 1.76 1.493 3.387 2.88 4.88 1.387 1.44 3.12 2.16 5.2 2.16zm40.779 7.92c-3.093 0-5.84-.8-8.24-2.4-2.346-1.6-4.213-3.733-5.6-6.4-1.333-2.72-2.346-5.653-3.04-8.8-.693-3.2-1.04-6.533-1.04-10 0-3.467.347-6.773 1.04-9.92.694-3.2 1.707-6.133 3.04-8.8 1.387-2.667 3.254-4.8 5.6-6.4 2.4-1.6 5.147-2.4 8.24-2.4 4.107 0 7.547 1.413 10.32 4.24 2.827 2.773 4.8 6.16 5.92 10.16 1.174 4 1.76 8.373 1.76 13.12s-.586 9.12-1.76 13.12c-1.12 4-3.093 7.413-5.92 10.24-2.773 2.827-6.213 4.24-10.32 4.24zm0-7.92c5.974 0 8.96-6.56 8.96-19.68 0-13.12-2.986-19.68-8.96-19.68-5.92 0-8.88 6.56-8.88 19.68 0 13.12 2.96 19.68 8.88 19.68zm42.11 7.92c-3.094 0-5.84-.8-8.24-2.4-2.347-1.6-4.214-3.733-5.6-6.4-1.334-2.72-2.347-5.653-3.04-8.8-.694-3.2-1.04-6.533-1.04-10 0-3.467.346-6.773 1.04-9.92.693-3.2 1.706-6.133 3.04-8.8 1.386-2.667 3.253-4.8 5.6-6.4 2.4-1.6 5.146-2.4 8.24-2.4 4.106 0 7.546 1.413 10.32 4.24 2.826 2.773 4.8 6.16 5.92 10.16 1.173 4 1.76 8.373 1.76 13.12s-.587 9.12-1.76 13.12c-1.12 4-3.094 7.413-5.92 10.24-2.774 2.827-6.214 4.24-10.32 4.24zm0-7.92c5.973 0 8.96-6.56 8.96-19.68 0-13.12-2.987-19.68-8.96-19.68-5.92 0-8.88 6.56-8.88 19.68 0 13.12 2.96 19.68 8.88 19.68z" fill="#A30C33"/></svg>