<svg width="162" height="56" fill="none" xmlns="http://www.w3.org/2000/svg"><path opacity=".95" d="M18.2 55.96c-3.893 0-7.333-.8-10.32-2.4-2.987-1.653-5.307-3.76-6.96-6.32l5.44-5.52c2.933 4.213 6.747 6.32 11.44 6.32 2.933 0 5.12-.747 6.56-2.24 1.493-1.493 2.24-3.547 2.24-6.16 0-5.333-3.093-8-9.28-8-2.613 0-4.16.053-4.64.16v-8c.533.053 2.027.08 4.48.08 2.613 0 4.72-.613 6.32-1.84 1.6-1.28 2.4-3.12 2.4-5.52 0-2.56-.773-4.507-2.32-5.84-1.493-1.333-3.493-2-6-2-4.267 0-7.84 1.92-10.72 5.76l-5.2-5.12C5.48 3.667 11 .84 18.2.84c5.013 0 9.013 1.253 12 3.76 2.987 2.453 4.48 5.973 4.48 10.56 0 3.04-.96 5.707-2.88 8-1.92 2.24-4.24 3.653-6.96 4.24 2.773.427 5.227 1.84 7.36 4.24 2.133 2.347 3.2 5.28 3.2 8.8 0 4.587-1.547 8.32-4.64 11.2-3.093 2.88-7.28 4.32-12.56 4.32zm41.528 0c-3.094 0-5.84-.8-8.24-2.4-2.347-1.6-4.214-3.733-5.6-6.4-1.334-2.72-2.347-5.653-3.04-8.8-.694-3.2-1.04-6.533-1.04-10 0-3.467.346-6.773 1.04-9.92.693-3.2 1.706-6.133 3.04-8.8 1.386-2.667 3.253-4.8 5.6-6.4 2.4-1.6 5.146-2.4 8.24-2.4 4.106 0 7.546 1.413 10.32 4.24 2.826 2.773 4.8 6.16 5.92 10.16 1.173 4 1.76 8.373 1.76 13.12s-.587 9.12-1.76 13.12c-1.12 4-3.094 7.413-5.92 10.24-2.774 2.827-6.214 4.24-10.32 4.24zm0-7.92c5.973 0 8.96-6.56 8.96-19.68 0-13.12-2.987-19.68-8.96-19.68-5.92 0-8.88 6.56-8.88 19.68 0 13.12 2.96 19.68 8.88 19.68zm42.109 7.92c-3.094 0-5.84-.8-8.24-2.4-2.347-1.6-4.213-3.733-5.6-6.4-1.334-2.72-2.347-5.653-3.04-8.8-.694-3.2-1.04-6.533-1.04-10 0-3.467.346-6.773 1.04-9.92.693-3.2 1.707-6.133 3.04-8.8 1.386-2.667 3.253-4.8 5.6-6.4 2.4-1.6 5.147-2.4 8.24-2.4 4.107 0 7.547 1.413 10.32 4.24 2.827 2.773 4.8 6.16 5.92 10.16 1.173 4 1.76 8.373 1.76 13.12s-.587 9.12-1.76 13.12c-1.12 4-3.093 7.413-5.92 10.24-2.773 2.827-6.213 4.24-10.32 4.24zm0-7.92c5.973 0 8.96-6.56 8.96-19.68 0-13.12-2.987-19.68-8.96-19.68-5.92 0-8.88 6.56-8.88 19.68 0 13.12 2.96 19.68 8.88 19.68zm42.109 7.92c-3.093 0-5.84-.8-8.24-2.4-2.346-1.6-4.213-3.733-5.6-6.4-1.333-2.72-2.346-5.653-3.04-8.8-.693-3.2-1.04-6.533-1.04-10 0-3.467.347-6.773 1.04-9.92.694-3.2 1.707-6.133 3.04-8.8 1.387-2.667 3.254-4.8 5.6-6.4 2.4-1.6 5.147-2.4 8.24-2.4 4.107 0 7.547 1.413 10.32 4.24 2.827 2.773 4.8 6.16 5.92 10.16 1.174 4 1.76 8.373 1.76 13.12s-.586 9.12-1.76 13.12c-1.12 4-3.093 7.413-5.92 10.24-2.773 2.827-6.213 4.24-10.32 4.24zm0-7.92c5.974 0 8.96-6.56 8.96-19.68 0-13.12-2.986-19.68-8.96-19.68-5.92 0-8.88 6.56-8.88 19.68 0 13.12 2.96 19.68 8.88 19.68z" fill="#A30C33"/></svg>