<svg width="502" height="601" fill="none" xmlns="http://www.w3.org/2000/svg"><g opacity=".1" fill="#B01736"><path d="M361.83 438.948l-5.893-7.157-4.714-5.964-3.536-4.771v1.193h-1.178v-2.386l-2.357-1.192-2.357-2.386-1.179-5.964-2.357-7.157h-1.179l-2.357-2.385-1.178-2.386h1.178l1.179 1.193v1.193h1.178l-4.714-5.964-3.536-4.771v-2.386l-3.535-2.386-1.179-1.192v2.385h-1.178l-1.179 1.193 2.357 1.193 3.536 2.385v1.193h1.178v2.386h-1.178v1.193l1.178 1.192-1.178 3.579-1.179-1.193h-1.178l-2.357 1.193v2.385l1.178 2.386 1.179 1.193 4.714 16.677 4.714 3.579 5.893 4.771 1.179 3.578v4.772l2.357 2.385 1.178 2.386 7.072 21.459v1.193l4.714 3.578 2.357 4.771 1.179 3.579v4.771l2.357 2.386 1.178 2.385 2.357 9.532 4.715 7.157 1.178-1.193v-2.386l-1.178-5.964 1.178-4.771 1.179 1.193 3.535-1.193 4.715 2.386 1.178 2.385 1.179 1.193-2.357-5.964-2.358-4.771-1.178 1.193-4.714-2.386-2.357-2.385-4.715-3.579-3.535-5.964-1.179-7.156v-5.965l-1.178-2.385v-2.386l1.178-1.192 1.179-2.386 5.892-1.193 5.893 2.386 2.357 1.193 1.179 1.192-2.357-2.385-3.536-2.386-2.357-2.385-1.179-2.386-7.071-7.114z"/><path fill-rule="evenodd" clip-rule="evenodd" d="M30.88 113.552h2.356l4.715 4.771-1.179 2.386-2.357 1.192-3.536-2.385-1.178-2.386h1.178v-3.578zm149.571 22.642v1.192l-2.357 1.193-2.357-1.193 1.179-1.192 2.357-1.193 1.178 1.193zm263.809 84.027h-2.357v14.302h1.178v-3.578l1.179-2.385v-2.386l1.178-1.193 1.179-2.385-2.357-2.375zM348.868 63.487h-1.178l-1.179 3.578 4.714 2.386 2.358-1.193 2.357-2.386-1.179-1.193-1.178-2.385h-2.358l-2.357 1.193z"/><path d="M288.804 501.08l-1.179 2.386 1.179 2.385 3.536 3.579-2.357 3.578-1.179 1.193v5.964l1.149 5.812v12.505l-1.179 2.385 1.179 2.386-1.179 1.193-1.179 2.385 1.179 3.579-2.357 2.385h-9.418l-3.536 1.193-1.178 4.771-2.357 1.193-1.179 1.193 5.893 11.928 1.178 7.157 1.179 1.192v1.193l-1.179 8.339-3.535 1.193-1.179 2.385h1.179l1.178 1.193 2.357 4.771 1.179-2.385v-1.193l-2.357-2.386h5.893v-2.385l1.178-4.771 2.357-3.579-1.178-1.193 1.178-1.192h1.179v3.578l3.536-3.578v-1.193l1.178 3.578v2.386h1.179v-1.193h1.178l1.179 1.193 1.178-1.193 2.357 1.193 1.179 1.193v-2.386l1.179 1.193 2.357-1.193 9.428-9.542 4.714-8.339 1.179-1.193v-2.386h1.179v-4.771l1.178-3.578v-2.386l2.357-2.385 1.179-5.964 4.714-14.314 2.357-5.963 1.179-5.964 1.178-7.157v-5.964l1.179-4.771.009-2.811 2.357-10.725 2.357-8.339v-1.192l-1.179-2.386v-4.771l-1.178-1.193v-3.578l-1.179-3.579-2.357-4.771v-3.578l-5.893-16.689v-2.385l1.179-5.964-1.179-4.771 1.179-2.386-1.179-1.193-1.178 1.193-2.357-3.578v-3.579h-1.179l-1.178-1.192-4.715-2.386h3.536l1.179-2.386-1.179-2.385h-2.357l-2.357-1.193-1.179-1.193h-3.535l-3.536-2.385v-1.193l-2.357-1.193h-1.179l-1.178-1.193H299.4l-2.357 2.386-3.535 1.193h-1.179l1.179 2.385v9.532l-1.179-2.386v-4.771l-2.357 4.771-5.893 5.964v-3.578l2.357-4.771h-1.178l-1.179 1.193h-1.178l-2.357-1.193 2.357-2.386v-1.193l-3.536 3.579 1.179 1.193v3.578h-2.358v1.193l-2.357-5.964-3.535-5.964-8.24 3.578-5.893-2.385 2.357-3.579 1.179-2.385 2.357-3.579 1.179-3.578 1.178-2.386 1.179-1.192 3.536-5.964 1.178-7.157 2.357-2.386v-1.192l-1.178-1.193 1.178-2.386v-3.578l1.179-1.193 2.357-5.964 3.536-7.157v-2.385l1.178-1.193 1.179-2.385v-5.964l1.178-4.772 2.357-2.385 1.179-9.532 5.893-8.339h1.178l3.536-3.578 5.893-2.386 5.893-3.578h1.178l1.179-1.193h1.178v2.386l2.357 1.193 1.179-2.386-1.179-3.578 4.673.043 3.536-1.193h1.179l4.714-4.771h2.357l3.536-1.193-1.179-1.193h-1.178v-2.385h1.178v-4.772l7.072-2.385h3.535v1.193h2.357v-2.386l3.536-2.386 4.714 2.386 2.357-1.193h1.179v1.193h-1.179l-2.357 2.386-2.357 1.192 1.179 3.579h1.178l2.357-1.193 2.358-3.578 1.178-1.193h2.357l2.357-1.193v-3.578l1.179-2.386 3.536-1.193h2.357l1.178-1.193v-2.385h3.536l-1.179-1.193h1.179l1.179-1.193-1.179-2.385-2.357-1.193-2.357 1.193-1.179 1.193v1.192l-1.178 1.193h-1.179v-4.771h-1.178l-1.179-1.193v-1.193l1.179-1.192h-1.179v-7.157l2.357-4.771 1.179-5.964-1.179-1.193v-4.771l1.179-2.386-2.357-4.771 2.357-4.771 1.178-3.578h2.357l1.179-1.193 4.714-7.157h3.536l2.357 1.193 1.178-3.578v-2.386l2.358 2.386 1.178 2.385v4.771l2.357 2.386v1.193l1.179 1.193 2.357-2.386 1.179 2.386 1.178 3.578 2.357-11.917 2.357-13.11 1.148-1.801v-1.193l1.179 1.193h2.357v-3.578h-3.536l-2.357-4.772v-2.385l-1.179-1.193-1.178-3.578 3.535-2.386 1.179-3.578h5.893l-2.357 2.385-1.179 4.772 4.714 7.156v2.386l1.179 2.385h2.357l1.179 3.579v2.385l2.357 2.386-1.179 2.386-2.357 2.385v3.578l-1.179 1.193-1.178 2.386v3.578l1.178 1.193-1.178 7.157v5.964l-1.179 1.192v1.193l-1.178 4.771v4.771l2.357 2.386v1.193l-1.179 1.193v7.156l-2.357 9.543-1.178 2.385-1.179 1.193v3.578l-4.714 2.386 2.357 1.193 2.357 3.578v7.157l-1.178 5.964 2.357 7.156 3.535 7.157 16.49 22.653 21.203 21.459 3.536 5.964 4.714 4.771 3.536 2.386 1.178-5.964v-5.964l1.179-1.193 1.179-3.578-1.179-10.725-2.357-2.385h-1.179v-2.386l-1.178-2.385h-1.179L458.424 330l1.178-1.193 2.357 1.193 3.536-8.339 2.357-1.193h1.179v-1.193l-5.893-4.771-2.357-7.157v-5.964l3.535-5.963h1.179l1.179 1.192 2.357-4.771v-3.578l-7.072-4.771-3.535-8.339 1.178-8.339v-1.193l-1.178-1.193 1.178-2.385 1.179 1.193v3.578h2.357l1.178-3.578-5.892-4.771v-1.193l-2.358 2.385-3.535-3.578-2.357-3.579v-3.578l-1.179-3.578h-5.914l-1.178 1.193 1.178 1.192-2.357 1.193-2.357-1.193-3.536-10.724v-7.157l-1.178-1.193h1.178v-1.192h-1.178v-3.579l-1.179-1.193h-1.178l-1.179-5.963 2.357-4.772 1.179-1.192-1.179-1.193h3.536l2.357 1.193 1.179-3.579-2.358-1.193V204.8l2.358-4.771 1.178-4.772 1.179 1.193 4.714 7.157v-8.339l1.179-5.964 3.535-7.157 4.714-2.385 5.893-2.386 4.714 2.386h3.536l-1.178-3.579-2.358-3.578 1.179-2.386 1.179-3.578v-5.964l1.178-1.193-1.178-2.385h-1.179l1.179-1.193h1.178l-2.357-2.386h1.179l1.178-3.578-1.178-1.193h-1.179l2.357-2.385v-3.579h-1.178V140.4h1.178l1.179-2.386v-2.385l1.166-.565 1.179-3.578v-4.771l4.714-14.314h-2.357v-1.192l-1.179-1.193h1.179v-1.193l2.357 2.386 11.785-7.157-1.178-1.193v-4.77l-7.072-2.386v-2.386l-3.535 1.193-3.536-1.193-5.893-3.578-7.071-3.579-1.179 3.579-4.714 1.192-3.536-3.578-1.178 3.578v1.193h-2.357v2.386l-1.179-1.193 1.01-1.193h-4.546l.39 1.236.789 2.343-2.357 1.192-1.179 1.193 1.179-2.385 1.178-1.193v-1.193l-1.178-2.386h1.178l7.072-3.578-1.179-1.193v-1.193h4.715l4.714-3.578 2.357-7.157-1.179-7.156-2.357-7.157h-3.535l-4.715-1.193-1.178-3.578 1.178-2.386h-1.178l-1.179-1.193 2.357-1.193 1.179 1.193V46.8l2.357 3.578 1.179 3.578h2.357l1.178-1.193h1.179l2.357 4.771 2.357-2.385 2.357-5.964 2.357-3.579 2.357-1.192 3.536-1.193 3.536 2.385 2.357 1.193 4.714-1.193 3.536-2.385 2.357-2.386 3.536 1.193 3.535-1.193V38.45l-1.178-1.193v-1.193l3.535 3.578 1.179-2.385-2.357-2.386h1.178l1.179-1.192v-1.193h-2.357l-2.357 1.193-2.357-2.386v1.193h-1.179l1.179-2.386v-4.771l-2.358-2.386-2.357-1.192h-5.892l4.714-2.386 2.357-2.024 1.178-2.62v-.83l-2.357.362-2.357-.83 2.357-.831 3.536-2.14-2.357-1.545-1.179-1.193V.918l-1.178.363-1.179.958-1.178.234-1.179.117-3.536.959-2.357.83-5.892.118h-3.536l-2.357 2.982-1.179 2.982-1.178.958v.234l1.178.959v.958l-2.357-.713-1.179-1.193-1.178.927-1.179 1.906-1.178 1.31L458.39 17l1.179.234 1.178-.83 2.357.596 2.358.958v2.62h2.357l2.357 1.193h-2.357v2.386h-1.179l-1.178-1.193-1.179 1.193h-3.536V21.77l-2.357-1.193-4.714-3.461-1.179-.234h-1.178v2.502l-1.179-.362v-.479l-1.178-1.555-2.357-1.193-2.358.714-1.178 1.193 3.536.596-1.179 1.076-2.357 2.385-1.179-2.385-1.178-1.31-1.179 1.075-2.357 1.427-1.178-1.192-1.179-.235-3.536 1.427-3.535 2.386-1.179-1.193h-1.178l-4.715 2.386-1.178-1.193-2.357-1.193-3.536 1.193-3.536 2.386h-5.892l-1.179 1.192-2.357 1.193V26.53h1.178v-1.19h-1.178l-2.357 1.192-1.179 1.193-2.357 1.193h-2.357l-1.179 1.193-7.071 2.385h-1.179v2.386l-1.178-1.193h-1.179l-4.714 5.964-3.536 3.578h-2.357l1.179 1.193v1.193h-2.357l-2.357 1.193-1.179 1.193-2.357 1.192-3.536 2.386-3.535 1.193 2.357 2.385 1.178 2.386v3.578h2.357l1.179-1.193 5.893 3.579 1.178 5.964-1.178 2.385v2.386h-3.536l-2.357-2.386-7.071 2.386-2.358-2.386-5.892-2.385-1.179 1.193v5.963l-2.357 2.386h-2.357l-2.357 1.193-3.536 3.578-3.536 1.193-2.357-1.193v1.193l-2.357 2.386h-1.178l-1.179 2.385v1.193l-2.357 2.386-.872 2.162v2.385h-1.179v-1.193h-1.179v5.964l-1.178-2.385-2.357-2.386-3.536 1.193h-4.714l-1.179-3.578-2.357-4.772-13.143-3.397-18.846 11.917-5.893 7.157-4.714 2.386-9.429-4.772h-5.893l-4.714-1.192v1.192l-1.178 1.193h-2.358l-1.178-1.193 1.178-2.385 2.358-1.193-2.358-2.385-3.535-2.386-4.714 1.193-3.536 1.193-4.714 9.531-4.715 8.339h-1.136v-2.385l-1.179-1.193 2.357-1.193 1.179-1.193-1.179-1.193v-2.385l2.358-1.193 1.178-2.386-2.357 1.193-5.893 3.579-2.357 2.385-1.178-2.385 3.535-3.579h1.179l3.535-2.385 3.536-1.193-12.953 1.193-12.954 4.771h-5.893l-2.357 1.193 1.179 1.192 2.357 1.193-1.179 3.579-3.536 1.192-2.357 5.964 1.179 1.193 2.357-1.193v2.386l1.179 1.193 1.178 2.385v2.386l2.357 1.192v2.386h-2.357v2.386l-2.357-2.386h-1.179l-1.178 1.193h-2.357v7.157l-4.714-2.386-8.24-1.193-3.536 4.771-4.714 3.579-4.714-1.193-3.536-2.386-1.178-2.385 2.357-1.193-2.357-1.193-1.179 10.725-1.178 13.11-1.179 1.193-2.357-2.386v1.193h-2.357l-1.179-1.193v-1.193h-3.535l-4.715-7.157h-1.178l-1.179-1.192 2.357-2.386-1.178-2.386-2.357-1.192 1.178 1.192v1.193l-1.178 1.193-2.357-2.386-1.179-2.385-5.893-3.578-2.357-1.193h3.536l4.714 4.771h3.536l2.357-2.386-1.179-3.578-2.357-2.386v-4.771l-1.178-2.385v-1.193l-2.358-2.386h-2.357l-7.071-5.964-4.714 2.386h-5.893l-3.536-2.386-4.714-1.192v1.192l-1.179 1.193-2.357 5.964 1.179 4.771v4.771l-2.357-1.192h-3.536v1.192h-2.357l-2.357 1.193-1.179 1.193-3.535-1.193-2.357-1.193h-7.061l-2.358-1.192v-2.386l2.358-2.385-1.179-1.193h-9.418l-2.357-1.193-1.179 1.193h-1.178l-2.357-1.193h-2.357l-2.357 2.386-2.358 1.192-3.535 1.193v3.578l-2.357-2.385 1.178-2.386-1.178-3.578-2.357-2.386v3.579l-1.18 1.193h-3.461l-3.536-2.386-1.178 1.193-1.179 3.578-2.357 2.386 1.178 1.192h1.18v3.579l1.178 1.193-1.179 4.771 1.179 4.771 1.178 1.193v3.578l1.179 1.193 2.357 1.193 2.357 2.385 1.179 4.771v4.771l2.357 4.772 1.178 3.578v1.193l-9.428 7.156-1.179 3.579v2.385l-1.178 1.193-2.358 1.193v4.771l-2.357 3.579h-2.357l-3.535-1.193-3.536 1.193-2.357 2.385H8.508l-2.357-1.193v1.193H4.972l-1.179 2.386v1.192l1.18 4.772 2.356 3.578v16.688l-1.178 13.11-3.536 2.386-2.357 2.386 2.357 2.385v8.339l1.178 2.386v5.963l1.18 2.386 4.713 4.771-1.178 2.386-1.179 1.193-2.357 3.578v3.578l-2.357 3.579 2.357 4.771H7.33l2.357 2.385 4.714 1.193h8.24l1.178 2.386 1.179 3.578-1.178 1.193-2.358 3.578 3.536 1.193 3.536 3.578 1.147 8.116.031 6.187 2.357 2.386 2.358 3.578-1.179 2.386-2.357 2.385 1.178 5.964 3.536 3.579-2.357 5.964-2.357 7.156v3.579l-2.357 2.385v5.964l1.178 4.771h2.357l5.893-1.192 1.179-2.386 3.535 1.193h1.179v-1.193h7.071l3.536-3.578v1.192l1.179 2.386 2.357 1.193-1.179 3.578 5.893-5.964 4.714-7.156h2.357l1.179-2.386 1.178-3.578 2.358-1.193h2.357l3.535-3.579h4.715l3.535 1.193 2.357 2.386 2.358 1.193v2.385l1.178 1.193v2.386h11.786l1.178 2.385v2.386l1.179 2.385v3.579l1.178 2.385 1.179 1.193v1.193l1.178 2.385v7.157l2.358 4.771 1.178-1.193h1.179l1.178 4.772 3.389 4.573v4.233h1.179v2.386l1.178 1.193 4.715 2.385-1.179 1.193h-1.179v2.386l2.358 2.385h1.178v-1.192l2.357-1.193 3.536-1.193 2.357 3.578 1.179 3.579h1.178l2.357-1.193 2.357 5.964-2.357 5.964 1.179 1.193h1.178l3.536 2.385-2.357 2.386v3.578l-1.179 2.386 3.536 3.578 2.357 3.578h5.893l4.714-2.385h1.179l1.178-1.193 4.715 2.386 1.178-1.193 3.536 2.385 3.536 1.193v-1.193h7.071l1.178 1.193v1.193h1.179l1.179 1.193h1.178v2.385h1.179l3.535 3.579 1.179 4.771 5.893 7.156h1.178v1.193l1.179 1.193v2.386l2.357 2.385 2.357 3.579 1.179 1.192 1.178 3.579h1.179l1.178 1.193v2.385l3.536 5.964 9.428-2.386 1.179 1.193h2.357v1.193h1.179l1.178-1.193 1.179 1.193v-1.193h1.178v-1.193l4.715 3.579 8.239 1.193 1.153.543v4.771l3.536 3.578v2.386l1.179 2.385 2.357 2.386 2.357 1.193 2.357-1.193h1.179l7.071-3.578h2.357l1.179-2.386v-2.386l2.357-1.192 2.357-2.386h2.357l2.357-4.771 3.536-2.386 4.706.15z"/></g></svg>