<svg width="129" height="132" fill="none" xmlns="http://www.w3.org/2000/svg"><g opacity=".6" fill="#B01736"><path d="M62.566 74.433h-1.883l-1.536 1.193h-1.884l-.947 1.193-.474 1.192h-2.241l-1.526-1.192-2-2.386-4.945 2.386-.705 2.385-.59 1.193.117 1.193-.358 2.385-1.41-1.192-3.883 1.192.705 2.386 2.241 2.385 3.294 1.193 2.83 1.193v1.193h-.115l1.063 1.193h1.41l1.062 2.385-.357 1.193 2.946 2.386 3.178 3.578 2.241-1.193 1.884-1.193-1.179-7.156 4.125-4.772 5.178-3.578-.474-2.385.358-2.386-2.705-1.193h-2.588V76.82l-.832-2.386z"/><path d="M112.38 12.45l1.178-1.192-3.535-1.193-1.179 1.193 1.179 1.193h2.357zm8.25 1.194h-1.179l-1.178 1.192-3.536-2.385-7.072-1.193h-2.357l-2.357 1.193 1.179 1.193-2.357 2.385h-2.357v2.386L98.237 20.8v5.964l1.179 1.193-3.536 1.193-3.536 4.77v4.772l3.536 3.578 4.714-1.192 5.893-2.386 5.893 2.386 7.071-4.772 8.239-3.578v-1.193l1.179-2.385-4.714-5.964v-5.964l-3.525-3.578zM61.502 51.78h-1.884l-.358 1.193-1.294 1.192h-.947l-.59-1.192-2.83-1.193-2.704-1.193h-.358l-.474 1.193h-2.357l-2 1.193-.588 1.192-.821 1.193.82 5.964 2.59 4.771L49 67.287l1.178 1.193-.231 2.385.115 3.579 2 2.385 1.536 1.193h2.241l.474-1.193.947-1.192h1.884l1.536-1.193h1.884l5.766-9.532-.116-2.386 1.831-2.449h1.158l-1.22-1.129v-1.193l.02-2.396.042-1.203H68.29l-2.505-3.59-1.462.043-1.652 1.193-1.168-.021z"/><path d="M87.647 62.505l-2.357-1.192v1.192l-6.998-.074-2.42 1.267h-1.157l-1.2-1.193-1.178 1.193-2.358 1.193h-1.652l-5.766 9.531.82 2.386v2.386h2.59l2.703 1.192-.357 2.386.473 2.385 2.357 1.193h3.536l1.179 2.386 1.178 1.193h2.357l1.179-1.193 5.893 3.578h2.357l2.357-1.192v-1.193l1.178 1.192h2.358l-1.179-2.385-2.326-.66 2.326-.533h2.357l1.179-1.193 2.357-1.192v-3.579l1.178-1.193v-2.385l-2.357-1.193h-1.178l1.178-1.193V73.23l-4.714-5.964-3.536-4.771h-2.357v.01zM44.304 55.36l-9.429-2.385-.473 1.192h-.821l-2.589 1.193H29.11l-.474 1.193-.358 2.386-2.83 1.192-1.295 2.386 1.537 1.193 1.999 1.193v3.578l3.062 1.193 2.242 1.192.115 2.386.232 3.578 2.357 2.386-.358 1.193v2.385h1.768l.358 1.193h.82l3.883-1.193 1.41 1.193.358-2.386-.115-1.192.589-1.193.705-2.386 4.946-2.385-.116-3.579.231-2.385-1.178-1.193-1.294-1.193-2.59-4.77-.81-5.965z"/><path d="M27.702 66.084V64.89l-2-1.193-1.536-1.193h-4.714l-.82 1.193-2.116-2.385-2.241 2.385-1.179 1.193-2.115-1.193-.358 1.193-.231 1.193-2.947 2.385 2 3.579 2.704 3.578-.358 1.193-.589 1.193h.59l.357 1.192h-.59l-.589 1.193 2.242 2.386h4.24l1.063 2.385 1.295 1.193 5.535 2.386 7.071 3.578 1.063 1.193 1.063 2.385 1.652-2.385 1.294-2.386 1.536 1.193h1.768v-1.193l.705-1.193-.231-1.192-2.242-2.386-.705-2.386h-.82l-.358-1.192h-1.768v-2.386l.358-1.193-2.357-2.385-.232-3.579-.116-2.385-2.241-1.193-3.062-1.193-.021-2.385z"/><path d="M25.114 35.092l-1.178 1.193h-4.83l-2.242-1.193h-2.473l-1.999-3.578-3.536-1.193-1.062 1.193-.358 2.385-.705 1.193H5.91l-1.768 2.386-1.883 2.385-1.063 2.386H.375l.947 1.193-.231 1.193h.705l2.946 1.192 2.241-1.192 1.063 1.192.705 2.386 2.242 1.193 1.883 1.192 2.83 3.579.359 3.578-1.526 2.386-.232 3.578 2.242-2.386 2.115 2.386.82-1.193H24.2l1.294-2.385 2.83-1.193.358-2.386.474-1.192h1.884l2.588-1.193h.821l.474-1.193-2.705-4.771 1.179-1.193 1.883-2.386-1.178-5.963-.705-4.772-4.125 1.193h-4.157zM80.58 88.736l-1.178 1.193h-2.358l-1.178-1.193-1.179-2.386h-3.535l-2.357-1.193-5.178 3.579-4.125 4.77 1.179 7.158-1.884 1.192-2.241 1.193.947 1.193 1.179 1.193-.59 2.385-.357 1.193 2.115 1.193 2.472 1.193 1.295 2.385 1.178 2.386h1.768l-.231 1.193 1.536 1.193 5.65-2.386 5.894-2.386 2.357-1.193 1.178-1.192v-5.964l-1.178-3.579 2.357-1.192v-2.386l-1.179-1.193 1.179-1.192 1.178-2.386 1.179-1.193-5.893-3.578z"/><path d="M60.873 35.029l-1.031.042-2.105-1.171-9.07 2.385-1.179-1.193-1.063-1.192-1.062 1.192h-2l-1.768-3.578-2.472-1.193-1.063 1.193-.821 1.193h-1.884L33.356 33.9l.705 4.77 1.179 5.965-1.884 2.385-1.179 1.193 2.705 4.771 9.428 2.386.821-1.193.59-1.193 1.999-1.193h2.357l.473-1.192h.358l2.704 1.193 2.831 1.192.59 1.193h.947l1.294-1.193.358-1.193h3.062l1.652-1.192 1.462-.043.937-2.375 1.19-1.203-1.232-5.9-3.578-1.236-2.252-4.813zM32.42 99.46l1.883-1.192.232-2.386-1.063-2.386-1.063-1.192-7.071-3.579-5.535-2.385-1.295-1.193-1.063-2.386h-4.24l-2.242-2.385-4.24 7.157 1.536 1.192 2.357 2.386.59 2.385.82 2.386.116 1.193 3.883 1.193 3.767 2.385h-.474l-.82 4.771v3.579l1.536 1.192 1.526-1.192 1.41 4.771 2.83 4.771.821-1.193 1.063-1.193 2.947-5.964h1.178l1.179-1.192-.232-2.386v-3.578h1.652l1.179-2.386h-1.652l-1.516-1.193z"/><path d="M47.371 92.303v-1.192l-2.83-1.193-3.294-1.193.231 1.193-.705 1.193v1.192h-1.768l-1.536-1.192-1.294 2.385-1.652 2.386-.232 2.385-1.883 1.193 1.536 1.193h1.652l-1.178 2.386h-1.652v3.578l.231 2.385-1.179 1.193H30.64l-2.947 5.964-1.062 1.193-.821 1.193 1.294 7.157 2.115 1.192.947 1.193 2.705 2.386 4.83 1.192 5.061-1.192.821-1.193h.947l2.589-1.193 2.473-2.385-.358-2.386.115-2.386h2.947l2.83 1.193 1.768-1.193h1.537l1.063 2.386 1.294 1.193 3.062 1.193 2.589 1.192 1.652-4.771-.232-3.578-1.536-1.193.231-1.193h-1.767l-1.179-2.385-1.294-2.386-2.473-1.193-2.115-1.193.358-1.192.589-2.386-1.179-1.193-.947-1.192-3.178-3.579-2.946-2.385.358-1.193-1.063-2.386h-1.41l-1.063-1.192h.126zm12.722-75.081l-4.472-1.193-6.24-1.193-4.598-5.964-4.946-5.964L38.185.523h-2.473l-1.536 1.192-2.589 2.386-3.536 3.578H25.81l-.116 2.386.232 1.193h.358l.115 1.193h-1.063l-1.178 1.192-1.063 2.386-.473 3.578.473 2.386-.116 1.193-1.178 1.192-1.41 1.193.705 1.193 1.294 1.193.358 3.578-1.179 1.193.232 2.386-.474 1.192h2.589l1.178-1.192h4.125l4.125-1.193 2-1.193h1.883l.821-1.193 1.063-1.193 2.473 1.193 1.767 3.579h2l1.063-1.193 1.062 1.193 1.179 1.192 9.07-2.385 4.557-4.803 1.926-4.729-1.537-1.193-1.767-2.385-.474-1.193-.337-2.396z"/></g></svg>