<svg width="165" height="179" fill="none" xmlns="http://www.w3.org/2000/svg"><g opacity=".5" fill="#B01736"><path d="M72.284 61.342l-1.178-2.386-4.715-1.192v-2.386l-3.535-2.386-2.357-3.578-4.715 7.157-2.357-1.193h-4.714l1.179 4.771-1.179 4.771 1.179 2.386v2.386l-3.536 4.77-3.536 2.386 3.536 4.771 7.071 1.193 1.179 1.193v1.193l2.357-3.579 2.357-5.964h3.536l2.357-1.192h1.178l2.358 1.192h2.357l2.357 2.386 3.536 2.386 1.178-1.193h2.357l2.357-3.579 1.179-2.385-2.357-3.578v-3.579l-1.179-2.385h-5.893l-2.357-2.386zm73.018-21.46l-2.357-1.192-1.178-1.193v-1.193l-1.179-1.193h-2.357l-2.357-1.192-2.357-2.386-4.714 2.386-2.358 7.156-2.357 1.193h-2.357l-1.178-1.193h-2.358l-2.357 3.579-1.178 4.77-1.179 1.194h-2.357l-1.178 4.77-1.179 3.579 1.179 1.193h-1.179l-2.357 1.193h1.178l3.536 3.578h3.536v1.193h1.178l1.179 1.193 2.357-1.193V64.93l-1.179-1.193 2.358-1.193 2.357 1.193h-1.179v4.771l1.179-1.192 2.357 1.192-3.536 2.386h-3.536l1.179 2.386h1.179l2.357 2.385 1.178 2.386 2.357 1.192 2.358-1.192 7.071-2.386-1.179-2.385-1.178-3.579h-1.179l-1.178 1.193V64.93l1.178-1.193h1.179l1.178-1.193v-1.192l1.179 1.192 1.178-1.192 4.715-10.725 3.535-10.745z"/><path d="M58.154 39.883l-3.536 1.192-2.357 1.193h-1.179v-1.193l-4.714 2.386-2.357-4.771-2.357-8.34-2.357-1.192H36.94l-3.536-3.578v3.578l-2.357 1.193-1.179 1.193h-2.357l-2.325.532 2.325.66 1.179 2.386h-2.357l-1.179-1.193v1.193l-2.357 1.193 1.178 3.578 3.536 2.386 2.357-2.386 5.893 11.928h2.357l2.357-2.386 3.536 3.579 4.714 2.385h4.714l2.358 1.193 4.714-7.157 1.178-4.77h-1.178V43.47h-1.179l-1.178-1.192 1.178-1.193-1.178-1.203zm85.982 39.34l-1.179-1.193v-1.192h-3.535l-3.536-1.193-7.071 2.385-2.357 1.193-2.358-1.193-4.714 2.386-4.714 1.193-1.179-1.193v1.193l-1.178 1.192 1.178 1.193v2.386l-1.178 2.386-1.179 1.192h-2.357v1.193l-3.536 7.157-1.178 3.578v7.157l2.357 2.385v1.193l1.179 1.193h1.178l-1.178 3.578v2.386l1.178 2.386v1.192h-2.357l2.357 7.157h1.179l2.357-2.386 3.535 1.193-2.357 3.579-2.357 2.385 2.357 2.386-2.357 5.964h1.179l1.178 2.385 1.179 1.193h4.714l2.357 1.193 1.179 1.193 4.714 1.192 2.357-4.771h2.357l1.179-2.385v-1.193h1.178v-2.386l3.536-3.578 7.071-11.928h2.358l2.357-1.193h1.178l2.357 2.386 1.179-2.386 3.536-3.578 2.357-3.578-5.893-1.193-7.071 1.193-1.179-1.193v-1.193h-4.714v-1.193l-2.357-8.339v-1.192h1.178v-1.193l1.179-1.193 3.535-1.193 3.536 2.386-1.178 2.385v2.386l2.357-1.193 1.178 1.193v2.385h1.179l1.178-1.192 1.179-2.386 2.357 1.193h1.179l1.178-1.193h4.714l-2.357-2.385 2.357-4.772V94.74h-1.178l-3.536-2.385-4.714-2.386-1.179-1.193h-1.178v-3.578h-4.714v-1.193l-1.179-3.578h-1.179l-1.178-1.204z"/><path d="M40.478 49.425l-2.357 2.386h-2.357L29.87 39.883l-2.357 2.385-3.536-2.385-1.178-3.579h-2.358l-1.178 1.193-1.179 2.386-1.178 1.193 1.178 1.192v2.386l-2.357 1.193 1.179 3.578v5.964l-1.179 1.193-2.357 1.193 2.357 3.578 3.536 1.193 1.178 2.385 1.179 1.193h2.357l2.357 2.386v1.193l3.536 2.385 2.357 1.193h1.179v2.385l3.535-1.192H39.3l2.358 1.192 1.178 1.193 3.536-2.385 3.535-4.771v-2.386l-1.178-2.386 1.178-4.77-1.178-4.772-4.714-2.386-3.536-3.578zM86.41 76.838l-2.357-3.578-1.178 2.385-2.358 3.579H78.16l-1.178 1.192-3.536-2.385-2.357-2.386h-2.357l-2.357-1.193h-1.179l-2.357 1.193h-3.536l-2.357 5.964-2.357 3.579v1.192l1.179 2.386v2.385l1.178 1.193 2.357 1.193v3.578h1.179v3.579l1.178 1.193 1.179 4.771 1.179 3.578 9.418-1.193 3.535-3.578 4.714-2.386 1.179-1.192h2.357l2.357-2.386 2.357-3.578 4.715-2.386 2.357-4.771 3.535-1.193-2.357-2.385h-1.178v-3.579l-3.536-3.578h-2.357l-2.357 1.192-1.179-1.192-1.168-1.193z"/><path d="M102.906 45.846l-2.357 1.193-3.535-2.386h-4.715v1.193h-3.535l-2.357 1.193h-5.893v1.192l-5.893 1.193v1.193L75.8 51.81l-1.179 3.578h-4.714l-1.179-1.193H67.55l-1.179 1.193v2.386l4.714 1.193 1.179 2.385 2.357 2.386h5.893l1.178 2.385v3.579l4.715 7.156 2.357 2.386 2.357-1.193h2.357l3.536 3.578v3.579h1.178l2.357 2.385 2.357 3.579h1.179v1.193l-1.179 1.193v2.385l2.358 2.386 3.535-7.157v-1.193h2.357l1.179-1.193 1.179-2.385v-2.386l-1.179-1.193 1.179-1.193v-1.192l1.178 1.192 4.714-1.192 4.715-2.386-1.179-2.385-2.357-2.386h-1.179l-1.178-2.386h3.535l3.536-2.385-2.357-1.193-1.179 1.193v-4.771h1.179l-2.357-1.193-2.357 1.193 1.178 1.193v1.192l-2.357 1.193-1.178-1.193h-1.179v-1.192h-3.536l-3.535-3.579h-1.179l2.357-1.193h1.179l-1.179-1.192-2.357-1.193-1.178-3.579h1.178v-1.192h-1.178v-2.386l1.178-3.578-3.536-1.193z"/><path d="M99.364 33.93v-1.193l-2.358-1.193-1.178-1.193h-1.179l-1.178 1.193-2.347-2.375H87.59l-1.179-2.386-2.357-2.385-3.536-2.386-3.535-1.192-2.358 2.385-1.178-1.193h-1.179l-1.178 2.386 1.178 2.386H71.09l-1.179 2.385 1.179 1.193-1.179 2.385h3.536l1.178 1.193 5.893 1.193 1.179 3.578v1.193l1.178 1.193v2.386l1.179 3.578h2.357l2.357-1.193h3.536v-1.193h4.714l3.536 2.386 2.357-1.193 2.357-2.385-1.179-1.193v-4.771H102.9l-1.178-1.193 1.178-2.386v-1.193h-2.357l-1.178 1.183z"/><path d="M74.631 33.93l-1.179-1.193h-3.535l-1.179 1.193-2.357 1.193V38.7l1.179 2.385h-3.536l-2.357 1.193v1.193h-1.179v1.193h1.179l-1.179 4.77 2.357 3.58 3.536 2.385 1.179-1.193h1.178l1.179 1.193h4.714l1.178-3.579-1.178-1.192v-1.193l5.893-1.193V47.05h3.535l-1.178-3.578v-2.386l-1.179-1.192V38.7l-1.178-3.578-5.893-1.193z"/><path d="M80.527 1.745L78.17 4.131h-4.715l-4.714-2.386v1.193h-1.178L65.206 4.13l-1.179 2.385L61.67 7.71l-4.714-2.386-3.536 3.579-1.179-1.193h-1.178v2.386l-1.179 1.192v1.193h-5.892l-3.536 1.193-3.536 2.385-4.714 1.193v2.386l-1.179 1.193h1.179l2.357 1.192v2.386l-1.178 1.193 3.535 3.578h2.357l2.357 1.193 2.358 8.339 2.357 4.771 4.714-2.386v1.193h1.178l2.358-1.193 3.535-1.192 1.179 1.192-1.179 1.193 1.179 1.193h2.357V42.29l2.357-1.193h3.536l-1.179-2.385v-3.578l2.357-1.193 1.179-1.193 1.178-2.386-1.178-1.193 1.178-2.385h1.179l-1.179-2.386 1.179-2.385h1.178l1.18 1.192 2.356-2.385 3.536 1.193 3.535 2.385 2.358-2.385 1.178-2.386 1.179-1.193 4.714 2.386 4.714-2.386 1.179-1.192-7.072-9.543-4.714-1.192h-2.357V4.12L81.705.542l-1.178 1.203zm27.086 115.615l1.178-3.578h-1.178l-1.179-1.193v-1.193l-2.357-2.385v-7.157l.663-2.002.516-1.576-2.358-2.386v-2.386l1.179-1.192v-1.193h-1.179l-2.357-3.578-3.535 1.192-2.358 4.771-4.714 2.386-2.357 3.578-2.357 2.386h-2.357l-1.179 1.193-4.714 2.385-3.536 3.579-9.418 1.193v1.192l2.358 3.579v2.385l3.535 2.386h5.893v5.964l3.536 1.193 2.357 2.385 1.178 2.386v2.385l2.358 9.543-1.179 1.192v2.386l2.357-1.193 1.179-2.385 1.178 1.192h1.179v3.579l2.357 2.385 1.178 2.386h3.536l2.357-2.386 4.715 1.193 4.714 2.386 1.178 2.385v1.193h2.357l2.358-1.193 2.357 2.386h2.357l1.178 3.578-1.178 2.386 5.893 8.339h3.535l2.357-2.386 1.179 2.386v1.193l8.239 3.578 7.072-5.964-3.536-5.964-3.536-4.771h1.179v-1.193l-1.179-2.386v-2.385h-1.178l2.357-3.578 2.357-1.193-3.536-3.579-3.535-1.192-1.179 1.192h-1.178v-2.385l-1.179-1.193-1.179 2.386h-2.357l-2.357 4.771-4.714-1.193-1.179-1.193-2.357-1.193h-4.714l-1.179-1.192-1.178-2.386h-1.179l2.357-5.964-2.357-2.385 2.357-2.386 2.358-3.579-3.536-1.192-2.357 2.385h-1.179l-2.357-7.156h2.357v-1.183l-1.178-2.385v-2.386z"/><path d="M32.243 73.259l-2.357-1.193-3.536-2.386v-1.192l-2.357-2.386h-2.357l-1.179-1.193-1.178-2.385-3.536-1.193-2.357-3.578-5.735 2.321-5.808 2.45.231 3.578-1.652 4.771.705 4.771 2.83 2.386h3.536v1.193l1.179 1.192h2.357v2.386h1.178l1.179 1.193 1.179 3.578-2.357 3.579-2.358 1.193 1.179 1.192h1.178v1.193l1.179 1.193 1.179-1.193h1.178l1.179 1.193v2.385l2.357 1.193h2.357l1.178 3.578 2.358 4.772v1.192l3.535 5.964v7.157l5.893-2.385 2.357-7.157h1.179v1.193l1.178 1.192h5.893l1.179-1.192 1.178-2.386 9.418 2.386 4.715-2.386 1.178 1.193h1.179v-2.386l-1.179-3.578-1.178-4.771-1.18-1.193v-3.578H59.34v-3.579l-2.357-1.192-1.178-1.193v-2.386l-1.179-2.386v-2.385L53.447 82.8l-7.072-1.193-3.535-4.77-1.18-1.194-2.356-1.192h-2.357l-3.536 1.192V73.26h-1.168z"/></g></svg>