<svg width="490" height="273" fill="none" xmlns="http://www.w3.org/2000/svg"><g opacity=".4" fill="#B01736"><path d="M171.222 207.588l-4.714-2.385-2.358-4.771-1.178 1.192-2.357 1.193-8.24-4.771-5.892-2.385-5.893 2.385 1.178 3.578-1.178 4.772h4.714l2.357 4.771 3.536 3.578h1.178v3.578l4.715 2.386h1.178l1.179 1.193 3.535-3.579 4.715 2.386 2.357-1.193 1.178-2.385 2.357-1.193h1.179v-1.193l-2.357-3.578h-3.536l1.179-1.193 1.168-2.386zM127.64 101.506l-3.535-1.193-4.714 1.193-1.179 4.771 1.179 3.578 4.714 2.386 3.535-2.386 2.358-3.578-2.358-4.771zm201.387-19.064h-5.893l-4.714 4.771 1.178 4.772 5.893 1.192h1.179l1.178-1.193h1.179l1.178-1.192v1.192l-1.178 1.193h1.178l1.179-1.193v-4.77l-2.357-4.772zm54.172 27.413l2.357 1.193v3.578l3.535 2.386 2.357-3.579-2.357-7.156v-2.386l-1.178-2.385h-2.357v2.385h-2.357v5.964zm-32.969-1.193l-3.535-1.193-4.715-1.192-5.892 1.192 1.178 1.193v2.386h-2.357l-1.178-1.193v-1.193l1.178-1.193-3.536-1.192h-4.714l-1.178-1.193-7.072 1.193-7.071-1.193-1.179-1.193v1.193h-1.178v3.578l-1.179-2.385-2.357-1.193-1.178-1.193-4.715 3.578-4.714 4.772-5.893-2.386-4.714-3.578 1.179-3.579 1.178-2.385-2.357-4.771 4.714-2.386 3.536-1.193 5.893 3.579 2.357-2.386v-1.193h1.178v-7.156l-3.535-4.772-4.714-3.578-1.179-3.578-1.179-1.193v9.531l-7.071 5.965-5.893 4.77v7.157l-4.714 3.579-2.357 2.385v3.579l4.714 7.156 4.714 9.543 1.179 1.192v1.193h2.357v-1.193l2.357-1.192h2.357l2.357 1.192 2.358 2.386h8.239l9.418 1.193 2.357-1.193 1.179-1.193 1.178 1.193h4.714l5.893 4.771 7.072 5.964 35.335 21.46 2.357 2.385 7.072-1.193 8.239-2.385v-1.193l1.179-2.386 1.178 1.193h1.179l9.428-4.771 1.179-1.193h2.357l2.273.895 2.431-3.28v-2.386l-1.179-1.193-2.357-3.578 4.714-4.771v-2.386l-3.535-5.964-4.715-4.771-5.892-4.771-2.358-2.385-2.357 2.385-1.178-1.193h-1.179l-1.178 1.193v7.157l-1.179 7.156-1.178-1.192h-1.179l-2.357 1.192-2.357-1.192h-1.179l-1.178 2.385-3.536 1.193-1.179-2.386 1.179-2.385 2.357-1.193h1.179v-2.385l-1.179-2.386h1.179l-8.24-1.193-7.071 1.193-2.357-3.578-7.072-2.386-4.714 1.193v1.193l-1.178 1.192-1.179-2.385h-2.357l-1.179 1.193h-1.178l1.178-1.193v-2.386l-2.357-1.192h-2.357l1.179-1.193v-1.193h2.357l2.357 1.193 2.357-4.772h1.179l1.178-1.192v-1.193l3.588.021zm-233.197 14.303v-1.193h-3.535l-2.357 1.193-1.179-2.385-1.652-1.193-2.241 1.193h-1.884l-5.893 2.385.82 4.771 1.179 3.579-1.062 1.192h-1.41l-.116 1.193-.232 1.193-3.535 1.193-.59 2.385-2.125 2.386.231 2.385 1.537 2.386 1.652 1.193 6.598 2.385 6.482 1.193 2.241 2.386h1.179l7.071-2.386 2.357-2.385 3.536 2.385 2.357 3.579h1.178l1.179 1.192 2.357 1.193 1.179-1.193h1.178l2.357 1.193 1.179 2.386h1.178l2.358 1.192v-7.156l-1.179-1.193h-1.179v-1.193h-1.178v-2.385l1.178-3.579-2.357-3.578-1.178-2.386v-3.578l-2.357-2.386v-1.192l-1.179-1.193h-4.714v-4.771l-2.357-2.386v-1.193l-4.714 2.386-2.358-1.193zM6.217 87.203l-1.294 1.192h.116l1.178-1.192zm11.66 3.578l-6.714-1.193-1.652-2.385-1.884-1.193-1.41 1.193-1.178 1.192h.473l1.294 3.579-2.704-1.193-3.536-1.193 4.946 9.532 5.65 8.339 3.294 4.771h1.063l1.295-1.193 4.125-1.193-1.063-8.338-.358-3.579-.116-3.578-.589-1.193h-1.536l-2.589 2.386-2.115-2.386-.82-2.386 6.123.011zm189.842-54.826l-4.714-5.963-3.536 8.338-4.714 5.964h-3.535l-3.536 2.386h-1.179v1.193l-1.178 1.193-3.536 1.192-1.179 3.579 1.179 1.192-4.714 4.772-1.179 4.77-3.535 1.194h-3.536l-1.179 8.338-1.178 9.532-15.311 2.386-16.489 1.192V89.6l1.189 10.724-1.189 5.964 2.357 3.004 1.336 4.92 2.199 3.461 4.715-.671h7.071l1.179 1.193h2.357l-1.179-2.386v-1.192h1.179l4.714 4.771h2.357l1.179 1.193 1.178 4.771 1.179 1.192 7.061 1.193h2.357l5.893 5.964 2.357-2.385 1.178 1.192 2.357-3.578 1.179-3.578v-1.193l4.714-4.771-2.357-3.579-1.179-4.771 2.358-2.385 1.178-2.386 2.357-7.157 2.357 2.386 2.358-1.193 2.357-2.385V95.53l1.178-2.386v-3.578h-2.357v-5.964l1.179-1.193 4.714-5.964 1.178-2.385 1.179-3.579h1.179l1.178 1.193 3.536-3.578v1.193h1.178l1.179-7.157-2.357-7.157h3.535l-2.357-4.771 1.179-1.193h-1.179l-1.178-1.193-3.536 1.193-1.178-3.578 1.178-3.578-4.725-5.9z"/><path d="M333.741 139.654l-7.071-5.964-5.893-4.771h-4.715l-1.178-1.193-1.179 1.193-2.357 1.192-9.418-1.192h-8.239l-7.071 9.542-1.179 3.578h2.357l1.179 1.193-2.357 7.157 1.178 2.385v1.193l-2.357 2.386-3.536-3.579h-1.178l-1.179 1.193-1.178-1.193v-1.192h-1.179l-2.357 1.192-1.179-2.385-2.357 2.385-1.178-1.192v-3.579l-8.24-5.964-8.239-2.385v4.771l2.357 4.771v5.964l-2.357 3.578v2.386l1.179 2.385-3.536 1.193h-2.357l-3.536 4.771-1.179 4.772 1.179 1.192h2.357l1.179 1.193h2.357v-1.193l1.178-2.385h4.715l1.178-1.193h1.179l2.357 4.771-4.714 4.771-5.893 4.771-1.179 3.579-1.178 2.385-7.072 2.386h-2.357l-2.357 1.193-3.536 5.964v3.578l-4.714 1.193-2.357 3.578 2.357 2.386 1.179 2.385v2.386l1.178 3.578-1.178 1.193v2.386l3.535-2.386 2.358-2.386h2.357v-1.192l4.714 2.385 3.536 1.193 4.714-1.193h3.536v1.193l2.357-1.193-1.179-3.578 2.357-5.964 7.072 2.386h2.357l2.357 2.385-1.179 2.386 3.536 2.385 2.357-1.193 2.357 3.579 2.357 2.385 2.357-1.192h4.715v1.192h2.357l1.178-1.192h1.179l1.178 1.192 2.358-1.192 3.535-1.193 7.072 7.157 11.775 1.192v-1.192l2.357-1.193 1.178-2.386 1.179-3.578h2.357l1.179-2.386-1.179-1.193v-1.192l4.714-9.543 9.429-9.542 1.178-7.157 1.179-1.192 2.357-1.193 1.179-1.193h1.178l2.357-1.193s1.943-.824 2.357 0c.21.416 0 1.193 0 1.193l1.179 2.386 7.071-3.579v-1.193l3.536-1.192 2.357-1.193h3.536l2.357 1.193 3.536-3.579 3.535-1.192v-1.193l2.357-2.386h3.536l4.714-1.193h4.714l1.179-2.385 1.179-1.193 5.471-3.323 5.125-2.641-1.178-3.578-2.358-3.579 1.179-4.771h1.179l1.104-1.48-2.273-.895h-2.357l-1.178 1.193-9.429 4.771h-1.178l-1.179-1.193-1.178 2.386v1.193l-8.24 2.385-7.071 1.193-2.357-2.385-35.399-21.481zM245.412.194V.79l-2.357 1.789-3.536-1.427-2.357-.83-1.178.958-2.358 1.31-1.178-1.907-1.179-.117-2.357-.362V2.59l-4.714 2.385-3.536 4.771v2.386l-1.178 5.964-1.179 4.771-3.535 1.193h-4.715l-7.071 5.964 9.428 11.928-1.178 3.578 1.178 3.578 3.536-1.192 1.179 1.192h1.178l1.179 1.193V45.53l1.178-2.386v-4.77l2.357 4.77v1.193h-1.178v5.964h2.357l1.179 5.964h-1.179v1.193l1.179 1.193h1.178v5.964l2.357 3.578 3.536 4.771 3.536 5.964 2.357 4.771 11.775 3.579 7.071-1.193 5.893-2.386 1.178-1.193v-2.385l2.358-2.386 2.357-3.578-1.179-2.386-1.178-1.192 2.357-7.157h-2.357v-7.157l-1.179-1.193v1.193l-1.179-8.339v-13.11l-1.178-2.385h-1.179l1.179-1.193-1.179-1.193v-1.193h-2.357l-1.178-3.578-1.179-2.386-2.357-1.193-2.357 1.193-1.179-1.193 2.357-1.192 2.358-2.386-2.358-1.193 1.179-1.192-1.179-1.193-2.357-1.193h1.179l1.178-1.193-1.178-1.193V9.768l2.357 2.385 3.536 1.193-1.179-3.578-1.178-4.772V6.19h-3.536v1.193l-1.179-1.193V4.996l-1.178-2.385V1.418l-1.179 1.193v1.193h-2.357L245.402.342l.01-.149zM120.569 86.01l-2.357 1.193 2.357 2.385h2.357l1.179 1.193h-1.179l-1.179 1.193v1.193h-1.178v4.771l1.178 2.386h2.358l3.535 1.192 2.357 4.772-2.357 3.578-3.535 2.385-4.715-2.385-1.178-3.578.978-3.973-2.157-1.991-1.178 1.192-3.536-3.578-1.179 1.193h-1.178v-2.386h-1.41l-.821 1.193-1.768 1.193h.589l-1.41 2.385-2.115-1.192-1.999 1.192h-2.126l1.179 3.579.947 2.385 1.179 2.386 1.062 2.385-.82 4.772 1.767 3.578h1.768l2.357-1.193 1.652 1.193 1.179 2.386 2.357-1.193h3.536v1.193l2.357 1.192 4.714-2.385v1.193l2.357 2.385v4.771h4.715l1.178 1.193v1.193l2.357 3.578v2.386l1.179 2.385 2.357 3.579h3.536l2.357 1.193 2.357-2.386h2.357l1.178-1.193h-1.178v-1.193l1.178-1.192v-3.579l3.536-2.385 3.536-1.193 2.357-2.386v-1.192l1.179-1.193h3.535l2.357-1.193-1.178-1.193-1.179-4.771-1.178-1.193h-2.357l-4.715-4.771h-1.178v1.193l1.178 2.385H153.6l-1.178-1.192-17.668-26.22v-3.579h-8.24l-5.945-1.214z"/><path d="M184.174 152.763h-1.178l-2.358-1.193v-2.386l-1.178-1.193h-1.179v-4.771l1.179-2.385 2.357-7.157-5.893-5.964h-2.357l-4.714-1.672-5.893 1.672h-2.357l-1.179 1.193v1.192l-2.357 2.386-3.535 1.193-3.536 2.385v3.579l-1.179 1.193v1.192h1.179l-1.179 1.193h-2.357l-2.357 2.386-2.357-1.193h-3.536l-1.178 3.578v2.386h1.178v1.193h1.179l1.178 1.193v7.156h3.536l1.179 8.35 9.418 1.192 3.535 2.386 1.179-1.193h1.178l3.536 3.579v5.964l4.714 5.964 4.715-1.193v-1.193l1.178-1.193 7.071 2.386 2.358-2.386v2.386h1.178l1.179 1.193v3.578l4.714 1.193v1.192l1.179 1.193 2.357 1.193 2.357 4.771 8.239 5.964h1.179l1.178-1.193 2.357 1.193h1.179l2.357-2.385 2.357 1.192 1.179 2.386 2.357-2.386-1.179-2.385 2.357-2.386h-3.535l-1.179-1.193v-2.385l2.357-1.193 2.357 1.193 4.715-3.579 2.357-2.385-1.179-4.771-2.357-1.193v-3.578h-7.071l-3.536-4.771-2.357-3.579-2.357 1.193h-3.536v-2.386l-2.357-1.193h-1.179l-1.178-2.385v-1.193l-2.357-2.385h-1.179v-1.193l-2.357 1.193h-3.536v-2.386l-4.714-4.771h-1.178v-1.193l-1.158-2.385zm-83.152-45.295l-.947-2.385-1.178-3.578-2.589 3.578-2.704 2.385h-3.651l-1.884 2.386.82 1.193.59 1.193-1.768 3.578-1.652-1.193.474-1.193.357-1.192h-.705l-.231 1.192h-1.179l-.947-1.192-2.115 1.192h-2.241v1.193h.473l-.115 1.193-1.18 3.578-2.703 2.386L73 122.975l.232 1.193.115 1.192-2.946 3.579-3.883 4.771h-.116l.116 1.193.947 1.192 1.179 1.193-.474 1.193-.116 1.193h1.063l1.537 2.385-1.41 3.579-.948 1.192h1.768l.947 1.193h2l2.115 5.964v2.386l.589 1.193h2.473l1.652 2.385 6.009-4.771.705-3.578v-2.386l2.125-2.386-.59-1.192h-.115l1.652-1.193 1.884-1.193-.232-2.385 2.115-2.386.59-2.386 3.535-1.192.232-1.193.116-1.193h1.41l1.063-1.193-1.179-3.578-.82-4.771 5.892-2.386-1.768-3.578.821-4.771-1.063-2.386-1.2-2.386z"/><path d="M365.548 69.32v-2.385h-2.357v2.386l1.178 1.193-1.178 4.77 3.535-3.578v-1.192l-1.178-1.193zm27.086-26.22l-3.536-1.192h-3.536v2.386h-1.178v2.385l-2.357-1.193h-3.536v2.386l1.178 1.193h-1.178v1.193l-1.179 1.192-3.535 2.386-2.357 2.385-1.179-1.192v-1.193l-1.179-1.193-2.357 1.193-2.357 2.385-1.178 3.579v3.578h2.357v1.193l2.357-2.386v1.193l-1.179 2.386 2.357 2.385-1.178 4.772 1.178 1.192 1.179 2.386h-2.357l-1.179-1.193V76.5l-1.178 1.193h-1.179v2.385l1.179 2.386h2.357l1.178 2.385v2.386h2.358V86.04h1.178l2.357 4.771 1.179 1.193V89.62l1.178-1.193v2.385l2.357 3.579v-2.386l1.179 1.193h2.357l-2.357-7.157v-5.964l1.179-5.964 1.178-4.77 2.357-4.772h1.179l3.536-7.157 1.178 1.193 2.357-1.193v-1.193l-1.178-1.192h1.178l2.357 1.192 1.179-1.192v-1.193h-1.179l-1.178-1.193 3.535 1.193V51.45h2.358l-1.179-3.578-2.357-2.386v-1.192l-1.179-1.193h-3.535zm27.085-26.22l-2.357 2.386v1.193h1.179v1.193l1.178 1.193h-2.357l-2.357 1.193h1.179l1.178 1.192v1.193l1.179 1.193-2.357-1.193-3.536-1.193-1.178 1.193 1.178 2.386h-4.714L409.112 30v1.193h-1.178L406.755 30v2.386l1.179 2.386-3.536-3.579-2.357 1.193v2.386-1.193l-2.357-1.193-2.357 1.193-1.179 1.193-1.178-1.193 2.357 3.578 4.714 1.193v1.193h-7.071l-2.357 1.192v1.193h3.535l2.357 2.386 1.179 2.386 1.179-1.193v3.578l2.357 1.193 1.178-1.193v1.193l1.179-1.193 2.357-1.193-1.179-2.385v-2.386l1.179 3.578h2.357l1.179-1.192-1.179-2.386-1.179-1.193v-1.193l2.358 1.193 1.178 2.386v1.193l2.357-4.772-1.178-1.192V38.35h1.178v-1.193h1.179v5.964l2.357-2.386 2.357-1.192 2.357-3.579-1.178-1.193V33.58h1.178v2.385l2.357 1.193 1.179-1.193 1.178-2.385 1.179 3.578 1.179-1.193V33.58h1.178v2.385l2.357-1.193V33.58l1.179 1.193 1.178-1.193v-1.193l-1.178-1.193h2.357l2.357-1.193 3.536-1.192V30l1.178-1.192h1.179l3.535-1.193h20.025l11.776-1.193 3.535-2.385 2.357-3.579 2.357-2.385-1.178-3.579-5.893-2.385-7.071 2.385v1.193l-1.179 1.193h-1.178v-1.193h-15.311l-3.536-3.579-2.357-1.192-1.178 2.385-3.536 1.193h1.178v-1.193h-2.357l-2.357 1.193-2.357-1.193h-3.536l-2.357 1.193h-2.357v1.193h-3.536v2.386l-1.178 1.192-2.357-2.385-2.357 2.385-2.357 1.193v-1.193l-1.169-2.385zM261.908 94.36h-1.178l-1.179 1.193h-3.536l-3.535 1.192-2.357-1.192-1.179-1.193-3.536 1.193h-4.714l-4.714 3.578-2.357 9.542h-1.179l-2.357-2.385v1.192h-1.178l-2.358-1.192-1.178-3.579-2.357-3.578-2.357-1.193-1.179 1.193v-1.193l1.179-1.193h2.357l-1.179-5.964-3.536-4.77-4.714 2.385-1.178 9.531h1.178l2.357 1.193-2.357 3.579-3.535 3.578-1.179-1.193h-1.179v1.193l-2.357-3.578-2.357-4.772-2.357 2.386-2.357 1.193-2.357-2.386-2.357 7.157-1.179 2.385-2.357 2.386 1.179 4.771 2.357 3.579-4.715 4.771v1.193l-1.178 3.578-2.357 3.578-1.179-1.192-2.357 2.385-2.357 7.157-1.179 2.385v4.772h1.179l1.179 1.192v2.386l2.357 1.193h1.178l1.179 2.385v1.193h1.178l4.715 4.771v2.386h3.535l2.357-1.193v1.193h1.179l2.357 2.385v1.193l1.179 2.386h1.178l2.357 1.192v2.386h3.536l2.357-1.193 2.357 3.579 3.536 4.771h7.071v3.578l2.357 1.193 1.179 4.771 5.893 1.193 1.178 2.385 2.357 2.386 2.358-1.193h2.357l7.071-2.385 1.179-2.386 1.178-3.578 5.893-4.771 4.714-4.772-2.357-4.771h-1.178l-1.179 1.193h-4.714l-1.179 2.386v1.192h-2.357l-1.179-1.192h-2.357l-1.178-1.193 1.178-4.771 3.536-4.771h2.357l3.536-1.193-1.179-2.386v-2.385l2.357-3.579v-5.964l-2.357-4.771v-4.771l8.24 2.386 8.239 5.964v3.578l1.179 1.193 2.357-2.386 1.178 2.386 2.357-1.193h1.179v1.193l1.179 1.193 1.178-1.193h1.179l3.535 3.578 2.357-2.385v-1.193l-1.178-2.386 2.357-7.157-1.179-1.192h-2.357l1.179-3.579 7.071-9.542-2.357-2.386-2.357-1.192h-2.357l-2.357 1.192v1.193h-2.357v-1.193l-1.179-1.192-4.714-9.543-4.714-7.157v-3.578l-5.893 4.771 1.178-2.385-2.357-2.386 2.357-1.193-4.693-9.531zm-75.374 91.779l-1.179-1.193h-1.179v-2.386l-2.357 2.386-7.071-2.386-1.179 1.193v1.193l-4.714 1.193-1.178 2.385v1.193l-8.24 3.579-7.071 4.771 8.239 4.771 2.357-1.193 1.179-1.193 2.357 4.771 4.714 2.386-1.178 2.386-1.179 1.192h3.536l2.357 3.579 4.714 2.385h4.714l3.536-3.578 3.536 3.578v2.386h2.357l4.714 1.193 2.357-1.193 3.536-2.386h1.179l2.357 1.193v-1.193h4.714l2.357-1.193v-3.578l1.179-3.578 1.178-2.386-1.178-2.385-2.358-1.193-2.357 2.385h-1.178l-2.357-1.192-1.179 1.192h-1.178l-8.24-5.963-2.357-4.772-2.357-1.192-1.179-1.193v-1.193l-4.714-1.193-.01-3.578zm-42.05 20.256h-3.883l1.179-4.771-1.179-3.579-4.714 1.193-3.536-3.578v-3.578l-3.472 5.899-2.347 7.179 1.158 1.171 1.189 2.375 3.546 3.589-2.431 7.21 3.536 4.771 4.714 5.964 4.714-1.193 3.536-2.385 3.536-1.193h5.893v-1.193l1.178-1.193v-2.385l-4.714-2.386v-3.578h-1.179l-3.535-3.579-2.357-4.771h-.832v.011zm-20.369-56.018l-3.535-2.386-2.358 2.386-7.071 2.386h-1.178l-1.179-1.193-1.063-1.193-6.482-1.193-6.598-2.385L93 145.606l-1.536-2.386-1.884 1.193-1.652 1.193h.116l.59 1.193-2.126 2.385v2.386l-.706 3.578-6.008 4.771 4.946 5.964 4.588 5.964 6.24 1.193 4.472 1.193.358 2.385.473 1.193 1.768 2.386 1.536 1.192 3.294-1.192 2.536-1.246h1.158l1.189-1.172 2.346 4.761 7.009 2.428 1.231 1.15 2.304-2.343 4.714 2.386h1.179l1.179 2.385v2.386l3.535-4.771 3.536-1.193-1.179-1.193v-5.964l1.179-2.385v-2.386h2.357l2.357-2.386-1.178-1.192 2.357-1.193h2.357l1.178-7.157-4.714-1.193h-3.536l-2.357-1.192h-1.178l-1.179-2.386-2.357-1.193h-1.178l-1.179 1.193-2.357-1.193-1.179-1.193h-1.178l-2.305-3.578z"/><path d="M233.647 190.9l-5.893-1.193-2.357 2.386-4.715 3.578-2.357-1.193-2.357 1.193v2.386l1.179 1.192h3.535l-2.357 2.386 1.179 2.386-2.357 2.385-1.179 2.386-1.178 3.578v3.578l-2.357 1.193h-4.715v1.193l-2.357-1.193h-1.178l-3.536 2.386-2.357 1.193 7.071 9.542-1.178 1.193-4.715 2.385-4.714-2.385-1.178 1.193-1.179 2.385-2.357 2.386 2.357 2.385 1.179 2.386h3.535l2.357 2.385 1.179-1.192h1.178l1.179 1.192 2.357 1.193v1.193l1.179-1.193h2.357v1.193l-1.179 2.385 1.179 1.193h1.178v4.772l1.179 1.192-2.357 2.386 3.536 1.193-1.179 3.578v2.386h1.179v1.192h-1.179l1.179 3.579 2.357 1.192 1.178-3.578 1.179-4.771h2.357l1.178-1.193 1.179-4.771 2.357-3.578h2.357l1.179 1.193h2.357l2.357-1.193 2.357-7.157 4.714-2.386 2.358 2.386 2.357 1.193h2.357l1.178 1.192v1.193l1.179 1.193 2.357 1.193 1.179-2.386 2.357-1.193 1.178-3.578 1.179-1.193-2.357-2.385v-3.579l5.892-3.578 3.536-4.771-4.714-3.578-4.714-4.772v-1.192h-3.536l-4.714 1.192-3.536-1.192-4.714-2.386v1.193h-2.357l-2.357 2.385-3.536 2.386v-2.386l1.178-1.192-1.178-3.579v-2.385l-1.179-2.386-2.357-2.385 2.316-3.535 4.714-1.193.042-3.622 3.535-5.964-2.357-2.385-.768-1.566-.41-.82z"/></g></svg>