<svg width="165" height="162" fill="none" xmlns="http://www.w3.org/2000/svg"><g opacity=".7" fill="#B01736"><path d="M4.062 22.143l-2.989-2.098L0 15.742l3.567-1.64.495 8.041zm78.963 44.942l.705-1.193-.358-1.192h-1.536l-1.41 1.192-.232-1.192.116-1.193h-1.178l-.821-1.193-2-2.386-2.357-1.192-.589 2.385-.59 1.193-2.114-1.193-1.768-1.193-1.537 2.386-.947 3.578 1.063 3.579-.705 2.385.947 1.193-1.768 2.386-1.883 1.192-.474-1.192H63l.116 4.77 1.883 2.386 1.526 3.579h1.652l1.537 1.192-.474 1.193h-2.704l-2 1.193.474 1.193h1.294l-.947 1.193-1.41 2.385h2.704l3.063 1.193.589 1.193-.232 1.192 3.294 2.386h2.589l2.241 2.386 1.294 1.193h.59l-.947 1.192h-1.179l2.946 2.386.474 3.578 2.588-1.193 1.768-1.192.474 1.192.947 1.193h2.115l.59-3.578-1.769-1.193h4.01l.231-2.385h-.705l1.768-1.193 1.652 1.193 3.294-2.386 2.115-1.193-.947-5.964-2.705-5.964-1.652-2.385-.705-2.386.821-5.964-1.41-2.385-1.768-2.386-.947-2.386-1.063-3.578h-7.05z"/><path d="M133.786 57.554h-1.536l-1.294-1.193-.232 1.193h-.231l-.947-1.193h-1.537l-1.999 1.193 1.179 2.385.705 3.578 1.41 1.193.947 1.193-1.537 1.193-1.062 2.385.357 3.579 1.179 2.385h3.062l2.473 2.386h-1.999l-2.589 1.193-1.063 10.735-4.241 1.193h-4.356l.231 1.192 1.179 1.193-.474 1.193-.357 1.193 1.178 1.192.821 1.193-4.009 1.193-1.063 3.578.474 1.193h2.357l1.641 2.386v1.193h1.179l-.232 1.192h1.063l.705-1.192 3.42 2.385.116 1.193h.116l1.294-1.193h.589l-.231 1.193.82-1.193 1.179-1.193.705 1.193-.116 1.193-.947 1.193-.473 1.193 2.82-2.386 3.294-2.386 3.419-1.192.59 1.192-2.115-9.531h.705l1.41 2.385h2.357l1.178-8.338v-9.532l-2.357-2.386-1.883-2.385-1.179 1.193-1.178-1.193 1.062-3.579 2-2.385-.474-3.579-1.178-3.578 2.83-2.386-1.178-2.385-.705-2.386-3.536-1.192-3.736-.032zm-47.584 52.45l-.474-1.192-1.767 1.192-2.589 1.193h-1.063l.947 1.193 2.589 2.385-2.473 4.772h-.231l-.474 1.192-3.767 1.193-3.294-1.193 1.294-1.192h-4.588l.358 1.192-.231 1.193h1.652l1.883 2.386.59 2.385.231 1.193 1.294 1.193 1.295 2.385 2.473-1.192h2.588l1.295 1.192.473-1.192h4.24l1.18-2.386 1.999-3.578 2.946-1.193 2.589-1.193.358-2.385-.59-2.386h-3.998l.115-1.193.358-1.193h-1.536l-1.652-1.192-.116-1.193-.231-1.193H87.17l-.968-1.193z"/><path d="M76.56 108.811l-1.769 1.193h-1.41l-.947-1.193h-1.178l-1.295 1.193-.705-1.193-.947-1.192-2.588 1.192-2.705 1.193-1.063-1.193h-1.062l1.767 5.964.116 2.386 3.42 1.193 4.125 1.193h4.588l.947-3.579-1.178-1.193 1.294-2.385 1.883-2.386h.59l.358 1.193h2.588l-.473-3.578-2.947-2.386-1.41 3.578zm50.635-48.872l-1.178-2.386h-3.536v-2.385l-1.768-1.193-.821 2.386-1.536 2.385L114 56.361l-5.767 2.385-.705 1.193 1.999 1.193h3.536l-1.652 3.578-3.294 2.386-.463 2.385h-6.008l-.947 2.386-1.295 1.193h-.473l-.59-1.193-1.767 1.193-2.115-1.193-3.652-8.339-5.061-3.578-3.178 1.192-4.241 1.193.82 1.193h1.18l-.116 1.193.231 1.193 1.41-1.193h1.536l.358 1.193-.705 1.192h7.072l1.062 3.579.948 2.385 1.767 2.386 1.41 2.385-.82 5.965.705 2.385 1.652 2.386 2.704 5.964.947 5.964.821 1.192 1.884 1.193 3.535 5.964 2.473 3.578h1.294l.821 1.193.947-1.193h.705l3.652-2.385 3.883-1.193.82-1.193h1.179v-1.193l-1.642-2.385h-2.357l-.473-1.193 1.063-3.578 4.009-1.193-.821-1.193-1.179-1.193.358-1.192.474-1.193-1.179-1.193-.231-1.193h4.356l4.241-1.193 1.063-10.735 2.588-1.193h2l-2.473-2.385h-3.062l-1.179-2.386-.358-3.578 1.063-2.386 1.536-1.192-.947-1.193-1.41-1.193-.747-3.589z"/><path d="M81.263 112.379l-.947-1.193h-1.537l-.357-1.193h-.59l-1.883 2.386-1.294 2.385 1.178 1.193-.947 3.578-1.294 1.193 3.293 1.193 3.767-1.193.474-1.193h.232l2.472-4.771-2.567-2.385zM55.587 58.746l-.59-3.579-3.177 1.193-4.01-1.193-1.883-2.385-1.178-1.193-.948 1.193.358 1.193.59 1.192 2.115 2.386 1.883 2.386h.705l1.063-2.386h1.294l.821 3.578-.358 3.579h-2.715l-2.704 2.385.232 2.386.357 1.193-1.178 1.192h-1.537l.232-1.192-.474-1.193h-.947l-1.178 1.193-.474 1.192 1.41 3.579 2.358 2.386 2.357-1.193 1.536-3.579h1.063l.947-1.193 1.536-2.385 2.589-1.193-.358 2.386-.474 2.385h1.884l1.179-2.385.705-1.193 1.41-1.193-1.179-5.964-3.262-3.578zM3.573 14.1l3.093-4.536-2.399-6.07-2.336-1.321L1.668.587l5.398.277 5.651 1.15 3.799 3.216-.684-4.675 2.999 3.514.379 1.608 3.525 3.227 1.694 4.41-1.368 3.588-.62 6.784 2.209.607 1.63-.234.485 2.034 2.168.48 2.872 3.855-3.493.042-1.273 2.14-4.915-4.131-1.136-2.833-2.704-.256-5.567-2.194-3.767-1.203-4.914.15-.463-8.042zm105.607 98.28l-2.473-3.579-3.536-5.964-1.883-1.192-.821-1.193-2.115 1.193-3.294 2.385-1.652-1.193-1.768 1.193h.705l-.231 2.386h-3.999l1.768 1.192-.59 3.579h.59l.232 1.193.115 1.192 1.652 1.193h1.537l-.358 1.193-.116 1.193h4.01l.589 2.385-.358 2.386-2.589 1.193-2.946 1.192-2 3.579-1.178 2.385h-4.24l-.474 1.193-1.295-1.193h-2.61l-2.472 1.193-1.41 1.193-1.768 2.386 2.357 5.964 3.062 4.771.821 8.339 2.589 7.156h2.83l3.063-1.192h4.009l3.42-2.386V146.97l1.178-10.724 6.714-5.964 2.946-1.193-.473-1.193h-1.652l.947-7.156-1.768-5.964 4.935-2.396zM70.303 96.884l-.59-1.193-3.062-1.193h-6.008l-4.588 3.578 3.178 4.772 1.652 5.964h1.063l1.062 1.193 2.705-1.193 2.588-1.193.947 1.193.705 1.193 1.295-1.193h1.178l.947 1.193h1.41l1.768-1.193 1.41-3.579h1.179l.947-1.192h-.59l-1.294-1.193-2.241-2.386h-2.589l-3.293-2.386.22-1.192z"/><path d="M65.016 82.58l-1.883-2.385h-1.884l.116 1.193-4.24 2.386-1.884-2.386-1.884-3.578-4.01 2.385-3.882 2.386 4.125 8.339 6.482 7.156 4.588-3.578h3.294l1.41-2.386.947-1.192h-1.295l-.473-1.193 2-1.193h2.703l.474-1.193-1.536-1.192h-1.652l-1.516-3.568z"/><path d="M71.372 39.671l-5.303-2.385-3.652-1.193.59-1.193 1.536-1.192-.473-1.193.231-1.193-1.294-1.193h-1.652v1.193l-.358 1.193h-.116l-1.063-1.193-.589-1.193-1.652-1.193h-1.536l-.705-1.192-.821-1.193v7.157l.358 5.963-.59-1.192h-.589l-.116-2.386V34.9l-1.536 1.193-1.652 1.193v-1.193h.473l-.82-1.193-2.242 1.193-2.115 1.193h-2.589l-1.536 1.193h-1.883L36.5 36.093l-2-3.578-.357 2.385.231 1.193-2-1.193h-1.651l1.41 2.386 1.178 4.771-.82 2.386.231 2.385.82 1.193h1.41l.117 3.578-.116 2.386 2.473 7.157.705 8.338.231 9.532h3.883l1.537 2.386.947 1.193h.82l3.767-2.386 4.01-2.386 1.883 3.579 1.884 2.385 4.24-2.385-.115-1.193H63.1l-.115-4.771h.589l.474 1.193 1.883-1.193 1.768-2.386-.947-1.193.705-2.385-1.063-3.579.947-3.578 1.537-2.386 1.767 1.193 2.115 1.193.59-1.193.589-2.385.59-1.193-.116-2.386h.705l.589-1.192h-2l-2.704-4.771.59-1.193.473-1.193-.474-1.193-.231-1.193h.82l1.064-1.193-.474-2.385-1.4-1.172zM55 55.167l.59 3.578 3.293 3.579 1.178 5.964-1.41 1.192-.705 1.193-1.178 2.386h-1.884l.474-2.386.357-2.385-2.588 1.192-1.536 2.386-.948 1.193H49.58l-1.526 3.578-2.357 1.193-2.358-2.386-1.41-3.578.474-1.193 1.179-1.193h.947l.473 1.193-.231 1.193h1.536l1.179-1.193-.358-1.193-.232-2.385 2.705-2.386h2.704l.358-3.578-.821-3.578h-1.294l-1.063 2.385h-.705l-1.884-2.385-2.115-2.386-.59-1.193-.357-1.192.947-1.193 1.179 1.193 1.883 2.385 4.01 1.193 3.146-1.193z"/><path d="M117.535 12.26h-.937l-.82 1.192-5.062 1.193-4.83-1.193-2.704-2.386-3.767 3.579-4.946-1.193-.821 1.193v2.385h.947l.705 1.193h-5.06l-.358 1.193.358 1.193-.948 2.385-.82 1.193-2.115 2.386-3.063 1.192-3.767-2.385-3.651-3.579h-4.588l-2.115-1.192-2.947 2.385-3.177 2.386 1.999 1.193 1.063 1.192 3.42 1.193 2.588 1.193-.231 1.193h-.705l-.947 2.385-.705-1.193H68.35l-2.115-1.192h-1.884l-.231 1.192.473 1.193-1.536 1.193-.59 1.193 3.652 1.193 5.304 2.385 1.41 1.193.473 2.386-1.063 1.192h-.82l.231 1.193.474 1.193-.474 1.193-.589 1.193 2.704 4.77h2l-.59 1.194h-.705l.116 2.385-.59 1.193 2.358 1.193 2 2.385 4.24-1.193 3.178-1.192 5.061 3.578 3.652 8.339 2.115 1.193 1.768-1.193.589 1.193h.474l1.294-1.193.947-2.386h6.008l.463-2.385 3.294-2.386 1.652-3.578h-3.535l-2-1.193.705-1.193-.705-1.193-.821-1.192h-1.883l.589-1.193v-1.193h-1.999l1.178-7.157-2.946-5.964.589-1.192h1.179l1.41-1.193 1.526-1.193 3.883 1.193 4.24-2.386-.231-3.578-.589-2.386-.706-1.192h-.505l3.294-3.579 3.178-2.385-1.179-5.964-.231-4.76z"/><path d="M146.514 18.224V17.03h-3.536l-2.83-2.386-.705-4.77-2.589-1.193-3.062-1.193-1.294-1.193-1.063-2.386h-1.526l-1.768 1.193-2.831-1.193h-2.946l-.116 2.386.358 2.386-2.473 2.385-2.588 1.193.231 4.771 1.179 5.964-3.178 2.386-3.294 3.578h.474l.705 1.193.589 2.385.231 3.579-4.24 2.385-3.883-1.192-1.537 1.192-1.41 1.193h-1.178l-.589 1.193 2.946 5.964-1.179 7.157h2V55.2l-.59 1.193h1.884l.821 1.193.705 1.193 5.766-2.386 4.357 2.386 1.526-2.386.82-2.385 1.768 1.192v2.386h3.536l1.999-1.193h1.526l.947 1.193h.232l.231-1.193 1.294 1.193h5.304l3.536 1.193.705 2.385 1.178 2.386 2.357-1.193 1.179-1.193h3.536V58.78l1.178-3.579 4.714-3.578 5.893-1.193 2.357-2.386v-1.192l-2.357-4.771-1.178-3.579h-2.357l-2.358-1.192v-2.386l-1.178-1.193h-1.179l-1.178 1.193-1.179-1.193v-1.193h-1.178l-1.179-1.192 2.357-1.193 2.357-3.579-1.178-3.578-1.179-1.193h-1.178v-2.385h-2.358l-1.157-1.193z"/></g></svg>