<svg width="401" height="486" fill="none" xmlns="http://www.w3.org/2000/svg"><g opacity=".2" fill="#B01736"><path d="M103.051 74.47l1.179 2.385h3.536v-7.157l-4.715 4.772zm175.48-52.451l1.178 1.193v1.192l2.357 1.193-1.178-3.578-1.179-1.193-1.178 1.193zm-74.197 5.964l-2.357-1.193 1.178 2.386 2.357 1.192v-2.385h-1.178z"/><path d="M45.327 440.409l5.893 10.736 2.357 7.156 1.178 1.193h1.179l2.357 1.193 1.179 1.193 4.714-1.193 3.536-1.193v1.193l-1.179 1.193 5.893 8.338h4.714l2.357-1.192 1.179-2.386 5.893 1.193h3.535l1.179-1.193h1.178l1.179 1.193 2.357-3.578 1.12-2.396 4.715-1.193h4.714v-2.386l1.179-2.385 5.892 1.193 4.715-2.386h4.714v-1.193l1.178-1.193h1.179v1.193h1.179v1.193h1.178l2.357-1.193v2.386l1.179 2.385h4.714l5.893 1.193 1.178 3.578 1.179 4.772 9.428 2.385h1.179l1.178-1.193 5.893 2.386h2.357l3.536 1.193 2.357 2.385 8.24-4.771 2.357-7.157h-1.179l-1.178-2.385v-3.578l-1.179-1.193 2.357-5.964 3.536-4.771h1.178l3.536-3.579 1.152-2.332 1.159 1.172 2.357 1.193 8.239 4.771 7.072 3.578h1.178l1.179 1.193 4.714 1.193 3.536 1.193v7.157l7.071 8.338 10.597 2.386 9.418-2.386 2.357-1.192h1.178l9.429 2.385h3.535l3.536 2.386 2.357 2.385h2.357l2.357 1.193 7.025 7.199 16.479 2.386h1.178l1.179-1.193 1.178 1.193h2.358l2.357-1.193 3.535-2.386 16.479-4.771 2.357-4.771 8.24-7.156 5.893 1.192 4.714 2.386h4.714l7.071-1.193 5.893 3.578 8.24 1.193 2.357-3.578 3.535-3.578 3.536-2.386 2.357-2.386v-2.385h-1.178v-1.193l2.357-9.532 2.357-10.724 3.536-4.771 2.357-4.771-2.357-2.386v-2.386l-1.179-1.192-3.536 1.192-1.178-3.578 1.178-2.385 3.536-3.579v-1.193l1.179-1.192 4.714-2.386 5.853-4.207-2.357-3.579-3.536-3.578 1.179-2.386v-3.578l2.357-2.386-3.536-2.385h-1.178l-1.179-1.193 2.357-5.964-2.357-5.964-2.357 1.193h-1.178l-1.179-3.578-2.357-3.579-3.536 1.193-2.357 1.193v1.193h-1.178l-2.358-2.386v-2.22h1.347l1.144-1.392-4.838-2.435-1.103-1.146-.085-2.349h-1.179v-4.234l-3.496-4.68-1.179-4.771h-1.178l-1.179 1.193-2.25-4.665v-7.156l-1.178-2.386v-1.193l-1.179-1.193-1.178-2.385v-3.578l-1.179-2.386v-2.386l-1.178-2.385h-11.786v-2.386l-1.178-1.193v-2.385l-2.358-1.193-2.357-2.385-3.535-1.193h-4.715l-3.535 3.578h-2.357l-2.358 1.193-1.178 3.578-1.179 2.386h-2.357l-4.714 7.157-5.893 5.963 1.179-3.578-2.357-1.193-1.179-2.385v-1.193l-3.536 3.578h-7.071v1.193h-1.179l-3.535-1.193-1.179 2.386-5.893 1.193h-2.357l-1.178-4.771v-5.964l2.357-2.386v-3.578l2.357-7.157 2.357-5.964-3.536-3.578-1.178-5.964 2.357-2.386 1.179-2.385-2.358-3.579-2.357-2.385-.031-6.188-1.147-8.115-3.536-3.579-3.536-1.192 2.357-3.579 1.179-1.193-1.179-3.578-1.178-2.386h-8.239l-4.715-1.192-2.357-2.386h-2.357l-2.349-4.739 2.357-3.578v-3.579l2.357-3.578 1.179-1.193 1.179-2.385-.016-.017-4.699-4.755-1.178-2.385v-.015l-.009-.017v-5.949l-1.17-2.369v-.015l-.008-.017v-8.315l-2.349-2.377.012-.012-.02-.02 2.357-2.386 3.536-2.385 1.178-13.11v-16.669l-2.349-3.566-.007-.031-.001-.001-1.179-4.771v-1.193l1.179-2.386h1.179v-1.192l2.357 1.192h2.336l2.357-2.385 3.536-1.193 3.535 1.193h2.357l2.358-3.579v-4.771l2.357-1.192 1.178-1.193v-2.386l1.179-3.578 9.428-7.157v-1.193l-1.178-3.578-2.357-4.771v-4.771l-1.179-4.771-2.357-2.386-2.357-1.193-1.179-1.193v-3.578l-1.178-1.193-1.179-4.771 1.179-4.771-1.179-1.193V83.98h-1.17l-1.179-1.193 2.357-2.385 1.179-3.579 1.179-1.193v-2.385l1.178-1.193-2.357 1.193-1.179 1.192-2.357-1.192-3.535 2.385v3.579h2.357l3.535-1.193v1.193l-1.178 1.193h-1.179l-2.357 3.578-2.357 1.193-1.179-1.193-1.178 2.385-2.357 1.193v3.579l-2.357-1.193-1.179-1.193v1.193h-8.229l-1.178 3.578-3.536 3.578h-1.179l1.179-2.385 2.357-2.386v-2.385l1.179-2.386 3.535-1.193 1.179-3.578-1.179-1.193-1.767-.894-1.768-.298h1.178l.59.298 5.303.894 4.714-4.77h1.179l2.357-4.772 4.714-4.771 1.179-3.579 7.071-4.77v-1.193l1.179-1.193 2.357-3.579 3.535-3.578 1.179-5.964-2.357-1.193-1.179-2.385v1.192l-1.178 1.193v-3.578h1.178l2.357 1.193v2.385l1.179-2.385v-5.964h-2.357v-3.579l-2.357-2.385-.021 2.45v1.192l-1.179-2.386V26.79l-1.178-1.193h-2.357l-4.715-7.157-1.178 1.193-1.179-1.192h-1.178v1.192h-5.893l-2.357 1.193-1.179-1.193h-1.157l-1.179 1.193-2.357 4.771h-3.536l2.357-5.964v-4.77h-7.071l1.179-1.194v-1.193l-3.536 1.193-2.357-1.193 2.357-1.192 3.536-3.579h1.178l1.179-1.192-2.357-2.386-3.536-1.193-1.179-1.193V.55h-2.357l-2.357 1.192h-1.179l-7.071 8.34-4.714 8.338 1.178 1.193v3.578l-7.071 2.386-1.178-1.193h-2.358v1.193l2.358 3.578 1.178 2.386h-2.357l-1.179-2.386-2.357 1.193h-1.178v1.193l-1.179 1.193h-1.178v1.192h-3.536l-1.179 1.193h-1.178v-1.193l-1.179-1.192-2.357 1.192-1.178 1.193 1.178-2.385 1.179-1.193-7.072-2.386-7.071 1.193-1.179 1.193 2.358 1.193h2.357v1.192l-2.357 1.193h-2.358l-4.714 1.193-3.536 1.193h-7.071l-7.071 3.578-2.357 2.386h-7.072l1.179 1.192 2.357 1.193-1.179 1.193-2.357 1.193-1.178 2.385v2.386l-2.357-2.386-3.536-1.192v1.192l5.893 5.964-1.179 1.193-2.357-2.386-1.179 1.193h-2.357l5.893 5.964-1.178 1.193v7.157h-1.179l-2.357 1.193h-1.179l3.536-3.579v-1.193l-4.714-1.192-3.536 1.192h-5.893l-14.142-2.385h-3.536l-2.357-1.193v1.193l-1.179 2.385-1.178 1.193 1.178 1.193v1.193h-1.178v2.385l1.178 1.193-1.178 3.578-1.179 2.386v2.386l-1.178 1.192 3.535 3.579 3.536 2.386v7.156l3.536 2.386 1.178 4.771-4.714 7.157 1.178 2.385-1.178 10.725-4.714 2.385 3.535 8.339 1.179 4.771h-1.179v-1.193l-2.357-1.192-1.178-1.193v-4.771l-1.179-2.386-1.178-1.193 4.714-11.917-1.179-2.386-2.357-1.192 1.179-1.193v-2.386l3.535-2.385 3.536-4.771-3.536-2.386-5.892-1.193-2.358-7.156-3.535-4.772-3.536-3.578H99.41l2.357 4.771 4.715 4.771v3.579l-2.357 2.385h-3.536v4.771l4.714 4.772v5.963l-1.178 5.964h-2.358l-2.357-1.192-2.357 2.385-4.714 3.579H91.16v1.192l-2.357 1.193v3.579l1.179 2.385 1.178 3.578 3.536 2.386 2.357 2.386h3.536l2.357-2.386 1.179 1.193v1.193l2.357 2.385-2.357 14.303-2.358 5.964-4.714 2.385v4.772l1.873 1.416-1.084 1.896-1.967 1.448v1.193l1.178 1.193 1.179 3.578 1.178 5.964-1.178 4.771v8.339l1.178 3.578 3.536 1.193v8.35l-1.179 2.385h-1.178l1.178 3.579h2.358l1.178 2.385 2.357 1.193 2.357-1.193 1.179 3.579-1.179 7.156-4.714 7.157h-2.357l-1.179 1.193v2.385l1.179 1.193 2.357 1.193-1.178 2.386-1.179 1.192v1.193l-1.179 2.386-3.535 4.771-5.893 4.771 1.179 8.339 4.714 2.385 2.357 2.386-8.24 4.771-9.417 2.386v15.495l4.556 2.301 4.862-1.119 4.714 1.193 3.535 1.193 2.358 1.193v1.193l1.178 1.192h1.179l2.357 2.386v3.578l1.178 2.386 3.536 1.193 2.357 3.578-2.357 1.193-3.536 2.385-1.178 3.579v3.578l4.714 4.771 2.357 5.964v1.193h-1.178v2.386l-1.179 1.192h-2.262l-2.357 4.772-1.179 3.578-4.69-.128-3.536 2.386-4.714-2.386-1.189 1.183h-8.24l-1.178 1.192-1.178-1.192h-1.18l-3.535 3.578H75.97l-1.179-1.193-2.357 1.193-2.114-.118-1.422 2.503v1.193l1.179 3.579v3.578l1.178 1.193-2.357 4.771 1.179 2.386v2.385l-1.179 1.193-1.178 2.385-3.54 2.343-1.178 1.193-4.703.021h-4.715v2.386h-1.178l-1.179-2.386-5.893 3.579-3.535 3.578-4.715-7.157 1.179-1.193-1.179-1.192h-1.178v-2.386l-1.179-1.193-1.178-3.578v-1.193l-7.072 2.386-8.239 3.578-1.179 1.193h-3.535l-3.536-1.193H7.63l-2.357 1.193v-1.193l-1.179-1.193-3.535 3.579 8.239 42.908 4.714-1.193v-2.385h2.357v-1.193l1.179-1.193 2.357 5.964 2.357 4.771 4.714 1.193 2.358 1.193h4.714v-1.193h3.535l1.179-1.193 4.714 3.579 2.351 4.78z"/></g></svg>