<svg width="283" height="346" fill="none" xmlns="http://www.w3.org/2000/svg"><g opacity=".3" fill="#B01736"><path d="M178.009 275.581l-2.357-1.193-2.354-2.382-.004-.004-1.178 2.386v1.193l-1.179 2.385v2.386l-2.357 1.193-1.178 2.385 1.178 2.386v2.385h-4.714l-2.357 1.193-2.357 2.386h-2.357v2.385l1.178 1.193-2.357 2.386-1.178 5.964 1.178 2.385 1.179 3.579v1.192l-1.179 1.193-1.178 2.386-1.179 3.578h4.714l2.357-2.385 1.179 1.192h3.536l-2.358 2.386-2.357 1.193 3.536 7.157 4.714 8.338 3.536-3.578 1.178 1.193v1.193l2.358-1.193h2.357l3.535 1.193h3.536l1.179-1.193 8.239-3.579 7.071-2.385v1.193l1.179 3.578 1.178 1.193v2.385h1.179l1.179 1.193-1.179 1.193 4.714 7.157 3.536-3.579 5.893-3.578 1.178 2.385h1.179v-2.385h9.418l1.178-1.193 3.536-2.385 1.179-2.386 1.178-1.193v-2.385l-1.178-2.386 2.357-4.771-1.179-1.193v-3.578l-1.178-3.579v-1.192l1.157-2.396-5.872.01-1.178-1.193-1.179 3.579-2.357 1.192-.463-.468-.715-.714-1.179-1.193 2.357-2.385v-4.793l1.179-1.192-1.179-2.386h-3.536l-1.178 1.193v1.193l-1.179-1.193h-7.071l-1.179-4.771-8.239-1.193-5.893-9.532-8.197-4.654 1.105-1.235-14.111-4.835zM42.573 144.469l-2.357-2.385-2.358-3.579-2.357 1.193-2.136-1.438-1.4-.947 1.18-2.386-2.358-2.386H28.43l-7.071-2.385L19 136.12l1.18 3.578-2.358 1.193 4.714 4.771 4.714 3.578-3.535 4.772-5.893 3.578v3.578l2.357 2.386-1.178 1.193-1.179 3.578-2.357 1.193-1.179 2.385-3.535 10.725-4.715 10.724-1.178 1.193-1.179-1.193v1.193l-1.178 1.193H1.323l-1.178 1.193v5.964l1.178-1.193h1.179l1.178 3.578 1.179 2.386 3.535 1.193h3.536v1.192l2.357 2.386h1.179l1.178 3.578v1.193h4.715l2.357-2.386 1.178-3.578v-1.193l2.357-1.192h5.893l2.357-3.579 2.357-2.385 2.358 2.385h3.535v-2.385l1.179-3.579 5.893-1.193 3.535-3.578v-4.771l2.357-3.578-2.357-5.964 3.536-3.579 4.714-2.385 11.786-11.928v-2.386l2.357-4.771 3.536-4.771-11.776-1.193-7.07-7.157-3.537 1.193-2.357 1.193-1.178-1.193H53.19l-1.178 1.193h-2.357v-1.193H44.94l-2.367 1.214zm-9.429 82.25v3.578l-2.357 4.771 2.357 2.386h-4.715l-1.178 1.192h-1.179l-2.357-1.192-1.178 2.385-1.179 1.193H20.18v-2.386L19 237.454l-2.357 1.192v-2.385l1.178-2.386-3.535-2.385-3.536 1.193-1.179 1.192v1.193H8.394v1.193l2.357 8.339v1.193h4.714v1.192l1.179 1.193 7.071-1.193 5.893 1.193-2.357 3.579-3.536 3.578-1.178 2.385-2.357-2.385H19l-2.357 1.193h-2.357l-7.072 11.927-3.535 3.579v2.385H2.5v1.193l1.179 1.193v2.386h1.178l1.179-1.193 3.535 1.193 3.536 3.578-2.357 1.193-2.357 3.578h1.178l4.715 1.193L19 287.54l1.178-3.578v-2.386l1.18-1.193h1.178l1.178-1.192h1.179l4.714 2.385 3.536 2.386-2.357-4.771-2.358-3.579 2.358-2.385h2.357l-2.357-1.193-2.358-2.386h1.179l2.357-2.385-1.178-1.193H35.5v1.193l1.178 1.192 3.536 1.193 2.357 1.193v1.193l1.179 1.193 1.178-1.193h3.536L52 273.227v-2.386l-1.179-2.386 2.357-1.192v-2.386l-3.535-2.385-4.715-3.579 3.536-3.578 1.178-2.386v-1.192h1.18L52 250.564h2.357l1.178-4.771v-5.964l-1.178-2.386v-1.193l-1.179-1.193-2.357-1.192h-1.178l-1.179 1.192-5.893-3.578-5.893-4.771v-1.193h-2.357l-1.178 1.204zm97.757-9.543l-4.714 1.193-2.357 2.386h-1.179l-2.357-1.193h-5.893l-1.178-1.193h-1.179l-2.357 1.193-1.179 2.386h-3.535l-3.536-1.193v1.193l-1.179 2.385v4.771l-2.357 1.193h-4.714v-1.193h-3.536l-2.357 1.193-2.357 4.771-1.178 5.964v1.193h1.178l-1.178 1.193H81.4l-1.178 2.385v4.771l4.714 2.386v4.771h3.536v1.193l1.178 1.193 1.179-1.193 1.178 1.193 2.358 3.578 1.178 3.578 1.179 1.193 2.357 1.193h1.178l1.179 3.578 2.357 4.771h1.179v-1.192l1.178 1.192v1.193h1.179l2.357 1.193 2.357 2.386 1.179 2.385h2.357l1.178-1.193v-2.385h1.179l2.357-1.193-1.179-1.193v-1.193h1.179l1.179-1.192-1.179-1.193 1.179-1.193 2.357-1.193v-1.193l1.178-1.192h1.179v-2.386l1.178-1.193h1.179v-3.578l2.357 1.193 3.536-1.193-1.179-8.339v-1.225h-3.536l-1.178-1.192 1.178-1.193 2.358-1.193v-7.157l7.071-4.771 1.178 1.193 1.179 2.386-1.179 1.192v2.386h2.358l4.714 2.385 3.536 2.386 1.178-1.193h2.357l8.24 2.386 9.405-3.574.013-.005-2.358-2.385h-3.535l-2.357-2.386-3.536-2.385-2.357-1.193v-5.964h-1.179l-2.357-2.386 1.179-1.192v-1.193l-1.179-1.193h-1.178l-1.179-4.771-2.357-3.578-1.179-1.193h-1.178l-1.179-1.193-3.535-1.193h-3.536l-1.179-1.192-1.178-2.386h-2.357l-1.179 1.193-2.336 3.599z"/><path d="M172.117 248.167l-9.418 3.578-8.24-2.386h-2.357l-1.178 1.193-3.536-2.385-4.714-2.386h-2.357v-2.386l1.178-1.192-1.178-2.386-1.179-1.193-7.071 4.771v7.157l-2.357 1.193-1.179 1.193 1.179 1.192h3.535v1.193l1.179 8.339-3.536 1.193-2.357-1.193v3.579h-1.179l-1.178 1.192v2.386h-1.179l-1.178 1.193v1.192l-2.357 1.193-1.179 1.193 1.179 1.193-1.179 1.193h-1.178v1.192l1.178 1.193-2.357 1.193h-1.179v2.385l2.358 3.579-1.179 5.964v2.385h1.179l-3.536 4.772 1.178 2.385 2.358 2.386h1.178l1.179-1.193h1.178v1.193h1.179v-1.225l1.178-1.193v8.339l2.357-1.193v-1.193l2.358 1.193 3.535 3.579h2.357v1.192l-1.178 1.193-2.357-1.193-2.357 3.579 1.178 2.385 2.357-1.192 5.893 3.578h1.179l4.714-2.386h3.536l2.357-2.385h2.357l1.178-3.579 1.179-2.385 1.178-1.193v-1.193l-1.178-3.578-1.179-2.386 1.179-5.964 2.357-2.385-1.179-1.193v-2.386h2.358l2.357-2.385 2.357-1.193h4.714v-2.386l-1.178-2.385 1.178-2.386 2.357-1.193v-2.385l1.179-2.386v-1.192l1.16-2.349.018-.037-1.178-1.193-1.179-2.385 1.179-1.193v-2.386l-1.179-2.385v-4.771l-1.178-1.193v-1.193h1.178v-3.578h1.179l-.021-3.52v-.005zM83.777 154v-3.578l-1.178-1.193v-1.193l-2.357 1.193v1.193l-3.536 4.771-2.357 4.771v2.386l-11.786 11.928-4.714 2.385-3.536 3.578 2.357 5.964-2.357 3.579v4.771l-3.535 3.578-5.893 1.193-1.179 3.578v2.386h-3.535l-2.358-2.386-2.357 2.386-2.357 3.578h-5.893l-2.357 1.193v1.193l-1.178 3.578-2.357 2.386v3.578h1.178l1.179 1.193 4.714 2.386 3.536 2.385h1.178l1.179-1.193h2.357v1.193l5.893 4.771 5.892 3.579 1.18-1.193h1.178l2.357 1.193 1.178 1.193v1.192l1.179 2.386.015-.01v-.043l3.535-2.385 3.536-1.193 2.357 1.193 2.357 2.385h2.357l3.536 3.579 3.536-2.386h5.892l-.026.053h.012l-1.179 2.385h2.357l1.179-1.193h-1.179v-1.192l1.179-5.964 2.357-4.771 2.357-1.193h3.536v1.193h4.714l2.357-1.193v-4.771l1.179-2.386v-1.193l-.019-.019-1.16-1.174v-13.11l-7.071-4.771 2.357-9.542v-2.386l-2.357-1.192v-3.579l1.178-2.385 1.179-4.771 2.357-4.772-2.357-3.578-1.179-2.385-3.535-8.361L83.777 154zM252.2 31.24v-4.772l1.178-3.578v-2.386l-1.178-1.193-1.179 3.579-1.178 5.964-3.536 3.578-5.893 1.193-1.178 1.193h-1.179l-1.178 2.385-3.536 3.579v1.192l1.178 1.193v1.193l-1.178 2.386 1.178 4.77v4.772l-5.892 5.964-1.179 3.578-2.357 4.771v4.772l-1.179 2.385-1.178 3.578h3.536l2.357 2.386 2.357-1.193h2.357l7.071 4.771 3.536 7.157v1.193l-1.179 1.193 1.179 3.578v3.578h-2.357l-3.536 2.386-1.178 3.578 4.714 4.771 3.535 2.386h-2.357l-2.357-1.193-2.357 1.193h-1.178v-3.578l-1.179-2.386v-1.193l1.179-2.385v-2.386l2.357-2.385h-1.179v-1.193l1.179-1.193V95.65l-1.179-2.386v-4.77h-12.954l-2.357 3.577-1.178 2.386v3.579l-2.357 8.338-2.357 2.386-3.536 1.193-1.179 3.578-2.357 2.386-3.535 1.192-3.536 2.386-2.357-1.193-1.179 1.193-2.357 3.578h-3.536v-1.193l-1.178-1.192-4.714-1.193-3.536-2.386-2.357-1.192-1.179-2.386-1.178-3.578v-3.579l4.714 2.386 5.893 2.385-1.179 1.193h-2.357v1.193l3.536 2.386h4.714v-2.386l1.178-2.386h1.179l2.357-1.192 1.179-1.193h1.178v-2.386l9.429-4.771 1.178-3.578v-2.386l3.536-2.385 2.357-3.579-2.357-4.77-1.179-7.158 3.536-5.964 2.357-5.963 2.357-7.157 2.357-2.386 3.536-7.157-1.178-5.963v-5.964l4.714-4.772 7.071-11.917v-3.578l-2.357-3.578-5.893-2.386-4.714-2.386h-1.179l1.179-1.192h-1.179V6.19l-5.892 7.157-5.893 8.338-9.418 7.157-7.071 3.578h1.178l-1.178 2.386h-1.179l-1.179 2.386h2.358l1.178 1.192-2.357 3.579-2.357 4.77v2.386l-1.179 2.386-1.178-1.193h-1.179L187.4 52.7l-1.178 3.578v1.193l1.178-1.193h1.179l2.357 4.771h1.178v2.386l-1.178 1.193v5.964l2.357 2.385v1.193l-7.071 8.339h-2.358l1.179-1.193v-1.193l-2.357-2.385-1.179-8.34-1.368.14-.2-.8-.526-.798 1.347-.043-.484-1.3-1.126-.766.663-1.98-3.009-3.984-4.715-3.578-4.714 4.77 2.357 3.58 1.179 1.192v2.386l-3.536 4.77h-1.178l-1.179 4.772 2.357 3.578 1.179 3.579-4.715 2.385-5.892 3.579-1.179 1.192-1.179 2.386h-4.714l-4.714 1.193h-3.536l-2.357 2.385v1.193l-3.535 1.193-3.536 3.578-2.357-1.192h-3.385c.46 1.397.567 2.181 1.028 3.578v2.386l1.178 2.385v1.193l-2.357 3.578-1.178 3.579h-2.358l-1.178 2.385 1.178 2.386 3.536 1.192-1.178 2.386 1.178 2.386h3.536l1.178 1.193 2.357-1.193h2.358v1.193l1.178 1.192 1.179-1.192h1.178l3.536 1.192 3.536 2.386 1.178 1.193 2.357 1.192-1.178 1.193-2.357 1.193 2.357 3.578 3.535 3.579 4.715-2.386 3.535 1.193h1.179l1.178-1.193h2.358v1.193l1.178 1.193h1.179l2.357 2.385-1.179 1.193-1.178 2.386v3.578l1.178 2.386 2.357 2.385v8.339l5.893 1.193 5.893-1.193 2.357 3.578 1.179 3.579 2.357 2.385 2.357 1.193 5.893 1.193 4.714 3.578 5.893 3.579 1.178 4.771 2.357 2.385h8.24l4.714 2.386 7.071-2.386 4.715-2.385h1.178v3.578l3.536 3.579h4.714l4.714 7.156h4.715l2.357 2.386 2.357 4.771 5.893-4.771 3.535-4.771 1.179-2.386v-1.193l1.178-1.192 1.179-2.386-2.357-1.193-1.179-1.193v-2.385l1.179-1.193h2.357l4.714-7.157 1.179-7.156-1.179-3.579-2.357 1.193-2.357-1.193-1.179-2.385h-2.357l-1.178-3.579h1.178l1.179-2.385v-8.339l-3.536-1.193-1.178-3.578v-8.339l1.178-4.771-1.178-5.964-1.179-3.579-1.179-1.192v-1.193l1.968-1.449 1.084-1.895-1.873-1.417v-4.771l4.714-2.385 2.357-5.964 2.358-14.303-2.358-2.386v-1.193l-1.178-1.192-2.357 2.385h-3.536l-2.357-2.385-3.536-2.386-1.178-3.578-1.179-2.386v-3.578l2.357-1.193v-1.193h1.179l4.714-3.578 2.357-2.386 2.357 1.193h2.357l1.179-5.964v-5.964l-4.714-4.771v-4.771h3.535l2.358-2.386v-3.578l-4.715-4.771-2.357-4.772h-3.536l-3.535 2.386h2.357l1.178 2.386v2.385l-4.714-1.193-1.178-3.578-4.715 1.193-1.178 4.771 1.178 4.771 2.358 3.579h2.357l2.357 2.385-1.179 5.964-2.357-4.771-7.071-3.578-5.893-4.771 1.179-1.193 2.357-4.772-1.179-2.385 3.536-3.578 2.336-3.61z"/><path d="M62.563 236.303l-3.535 1.192-3.521 2.376v5.921l-1.179 4.771h-2.357l-1.179 1.193h-1.178v1.193l-1.179 2.385-3.535 3.579 4.714 3.578 3.536 2.386v2.385l-2.358 1.193 1.179 2.386v2.385l11.786 2.386 2.357 1.193 1.178 1.192 2.357-2.385h2.357l3.536 1.193 1.179 1.192 18.836 2.386 2.357-2.386h1.178l2.357 1.193 1.179-1.193h1.179l-2.358-4.771-1.178-3.578h-1.179l-2.357-1.193-1.178-1.193-1.179-3.578-2.357-3.579-1.179-1.192-1.178 1.192-1.179-1.192v-1.193H84.95v-4.771l-4.715-2.386v-4.771l1.179-2.385 1.173-2.333h-5.881l-3.536 2.385-3.535-3.578h-2.358l-2.357-2.386-2.357-1.192zm113.089 38.085l2.357 1.193 14.111 4.835-1.105 1.235 8.197 4.654 5.893 9.532 8.239 1.193 1.179 4.771h7.071l1.179 1.193v-1.193l1.178-1.193h3.536l1.179 2.386-1.179 1.192v4.793l-2.357 2.385 1.179 1.193.715.714.463.468 2.357-1.192 1.179-3.579 1.178 1.193 5.872-.01h2.357l2.357-1.193 1.179 1.193h1.178l3.536-3.579h1.179l1.178 1.193 1.179-1.193h8.239l1.189-1.182 4.715 2.386 3.535-2.386 4.69.128 1.179-3.579 2.357-4.771h2.262l1.179-1.193v-2.385h1.178v-1.193l-2.357-5.964-4.714-4.771v-3.578l1.179-3.579 3.535-2.385 2.357-1.193-2.357-3.578-3.535-1.193-1.179-2.386v-3.578l-2.357-2.386h-1.179l-1.178-1.193v-1.192l-2.357-1.193-3.536-1.193-4.714-1.193-4.862 1.119-4.556-2.301v-15.495l9.418-2.386 8.239-4.771-2.357-2.386-4.714-2.385-1.044-8.319-2.357-4.771-2.357-2.386h-4.715l-4.714-7.156h-4.714l-3.536-3.579v-3.578H236.9l-4.715 2.385-7.071 2.386-4.714-2.386h-8.24l-2.357-2.385-1.178-4.771-5.893-3.579-4.714-3.578-5.893-1.193-2.357-1.193-2.357-2.385-1.179-3.579-2.357-3.578-5.893 1.193-5.893-1.193v-8.339l-2.357-2.385-1.178-2.386v-3.578l1.178-2.386 1.179-1.193-2.357-2.385h-1.179l-1.178-1.193v-1.193h-2.358l-1.178 1.193h-1.179l-3.535-1.193-4.715 2.386-3.535-3.579-2.357-3.578 2.357-1.193 1.178-1.193-2.357-1.192-1.178-1.193-3.536-2.386-3.536-1.192h-1.178l-1.179 1.192-1.178-1.192v-1.193h-2.358l-2.357 1.193-1.178-1.193h-3.536l-1.178-2.386 1.178-2.386-3.536-1.192-1.178-2.386 1.178-2.385h2.358l1.178-3.579 2.357-3.578v-1.193l-1.178-2.385v-2.386c-.461-1.397-.568-2.181-1.028-3.578l-2.4 1.173-3.536 1.193v1.192l-7.071 3.579-1.178-2.386s.209-.777 0-1.193c-.415-.824-2.358 0-2.358 0l-2.357 1.193h-1.178l-1.179 1.193-2.357 1.193-1.179 1.193-1.178 7.156-9.428 9.543-4.715 9.542v1.193l1.179 1.192-1.179 2.386h-2.357l-1.178 3.578-1.207 2.309v1.193l1.178 1.193V154l7.072 4.771 3.535 8.361 1.179 2.385 2.357 3.578-2.357 4.772-1.179 4.771-1.178 2.385v3.579l2.357 1.192v2.386l-2.357 9.542 7.071 4.771v13.11l1.16 1.174v-.022l3.536 1.193h3.535l1.179-2.386 2.357-1.193h1.179l1.178 1.193h5.893l2.357 1.193h1.179l2.357-2.386 4.714-1.193 2.336-3.599 1.179-1.193h2.357l1.178 2.386 1.179 1.192h3.536l3.535 1.193 1.179 1.193h1.178l1.179 1.193 2.357 3.578 1.179 4.771h1.178l1.179 1.193v1.193l-1.179 1.192 2.357 2.386h1.179v5.964l2.357 1.193 3.536 2.385 2.357 2.386h3.535l2.358 2.385-.013.005.021 3.52h-1.179v3.578h-1.178v1.193l1.178 1.193v4.771l1.179 2.385v2.386l-1.179 1.193 1.179 2.385 1.178 1.193-.018.037 2.354 2.382zM236.889.248h-2.357l-5.893 2.386v3.578l4.714 1.193 3.536-1.193V.248zm16.489 15.496l-4.714-1.193 1.179 3.578h1.178l1.179-2.385h1.178zm11.786 17.87l1.179-1.193v-2.385l-1.179-1.193-5.893 2.386 4.714 2.385h1.179z"/></g></svg>