<svg width="296" height="377" fill="none" xmlns="http://www.w3.org/2000/svg"><g opacity=".4"><path d="M71.803 213.607h245.931v-2.928H71.803v2.928zm257.636 11.708h2.928v17.567c0 .439-.146.732-.439 1.024l-89.589 89.297c-.293.293-.586.439-1.025.439H159.63v-2.928h81.098l88.711-88.418v-16.981zM117.177 77.464h109.791c.439 0 .732.146 1.025.439l103.935 103.935c.293.293.439.586.439 1.025v14.638h-2.928v-14.053L226.382 80.391H117.177v-2.927z" fill="#A30C33"/><path d="M190.376 171.152h58.848c.439 0 .732.146 1.025.439l39.524 39.232-2.049 2.05-39.086-38.793h-58.262v-2.928zm40.692 39.819l2.049 2.049-39.378 39.671c-.293.293-.586.439-1.025.439h-59.433v-2.927h58.848l38.939-39.232zM7.396 285.335H239.86c.439 0 .732.146 1.025.439l23.275 23.569-2.049 2.049-22.837-23.129H7.396v-2.928zm207.281 45.82l2.05 2.05-38.061 38.06c-.293.293-.586.44-1.025.44H55.701v-2.928h121.354l37.622-37.622zM190.961 5.732l58.994 58.995c.293.292.44.585.44 1.024v35.133h-2.928V66.337L188.912 7.782l2.049-2.05zm13.322 72.613l2.049 2.05-38.793 39.085c-.292.293-.585.439-1.024.439H19.102v-2.927h146.681l38.5-38.647zM67.41 36.474h65.581c.439 0 .732.146 1.025.439l41.281 41.281-2.05 2.05L132.405 39.4H67.409v-2.927z" fill="#A30C33"/><path d="M55.696 363.506a6.734 6.734 0 100 13.468 6.734 6.734 0 000-13.468zm90.76-46.843c8.49 0 15.517 6.88 15.517 15.517s-6.881 15.517-15.517 15.517c-8.637 0-15.518-6.88-15.518-15.517s7.027-15.517 15.518-15.517zm0 28.106c6.88 0 12.589-5.709 12.589-12.589 0-6.881-5.709-12.59-12.589-12.59-6.881 0-12.59 5.709-12.59 12.59 0 6.88 5.709 12.589 12.59 12.589z" fill="#A30C33"/><path d="M146.461 325.448a6.733 6.733 0 00-6.733 6.734 6.733 6.733 0 1013.467 0 6.734 6.734 0 00-6.734-6.734zM.657 286.506c0-3.66 3.074-6.734 6.734-6.734s6.734 3.074 6.734 6.734-3.074 6.734-6.734 6.734-6.734-2.928-6.734-6.734zm132.629-41.574a6.734 6.734 0 100 13.468 6.734 6.734 0 000-13.468zm-74.659-48.308c8.49 0 15.517 6.88 15.517 15.517 0 8.636-6.88 15.517-15.517 15.517s-15.517-6.881-15.517-15.517c0-8.637 7.027-15.517 15.517-15.517zm0 28.106c6.88 0 12.59-5.709 12.59-12.589 0-6.881-5.71-12.59-12.59-12.59s-12.589 5.709-12.589 12.59c0 6.88 5.71 12.589 12.59 12.589z" fill="#A30C33"/><path d="M58.633 205.409a6.734 6.734 0 100 13.468 6.734 6.734 0 000-13.468zm131.75-39.528a6.734 6.734 0 100 13.468 6.734 6.734 0 000-13.468zM19.098 111.717a6.734 6.734 0 100 13.468 6.734 6.734 0 000-13.468zm84.908-48.015c8.491 0 15.517 6.88 15.517 15.517s-6.88 15.517-15.517 15.517c-8.636 0-15.517-6.88-15.517-15.517s7.027-15.517 15.517-15.517zm0 28.106c6.881 0 12.59-5.709 12.59-12.59 0-6.88-5.709-12.589-12.59-12.589-6.88 0-12.589 5.71-12.589 12.59s5.71 12.59 12.589 12.59z" fill="#A30C33"/><path d="M97.275 79.22c0-3.659 3.074-6.733 6.733-6.733 3.66 0 6.734 3.074 6.734 6.734s-3.074 6.734-6.734 6.734c-3.659 0-6.733-3.075-6.733-6.734zM67.41 31.206a6.734 6.734 0 100 13.467 6.734 6.734 0 000-13.467zM183.196 6.76c0-3.66 3.075-6.734 6.734-6.734 3.66 0 6.734 3.074 6.734 6.734s-3.074 6.734-6.734 6.734c-3.806-.147-6.734-3.075-6.734-6.734z" fill="#A30C33"/><g opacity=".4" fill="#000"><path d="M183.196 213.479h137.456v-2.671H183.196v2.671zm146.243 11.836h2.928v17.567c0 .439-.146.732-.439 1.024l-89.589 89.297c-.293.293-.586.439-1.025.439H159.63v-2.928h81.098l88.711-88.418v-16.981zM117.177 77.464h109.791c.439 0 .732.146 1.025.439l103.935 103.935c.293.293.439.586.439 1.025v14.638h-2.928v-14.053L226.382 80.391H117.177v-2.927z"/><path d="M190.372 171.152h58.848c.439 0 .732.146 1.025.439l39.525 39.232-2.05 2.05-39.085-38.793h-58.263v-2.928zm40.696 39.819l2.049 2.049-39.378 39.671c-.293.293-.586.439-1.025.439h-39.433v-2.927h38.848l38.939-39.232zM7.388 285.335h232.464c.439 0 .732.146 1.025.439l23.275 23.569-2.049 2.049-22.837-23.129H7.388v-2.928zm207.281 45.82l2.05 2.05-38.061 38.06c-.293.293-.586.44-1.025.44H55.693v-2.928h121.355l37.621-37.622zM190.957 5.732l58.994 58.995c.293.292.44.585.44 1.024v35.133h-2.928V66.337L188.908 7.782l2.049-2.05zm13.326 72.613l2.049 2.05-38.793 39.085c-.292.293-.585.439-1.024.439H19.102v-2.927h146.681l38.5-38.647zM67.41 36.474h65.581c.439 0 .732.146 1.025.439l41.281 41.281-2.05 2.05L132.405 39.4H67.409v-2.927z"/><path d="M55.696 363.506a6.734 6.734 0 100 13.468 6.734 6.734 0 000-13.468zm90.763-46.843c8.491 0 15.518 6.88 15.518 15.517s-6.881 15.517-15.518 15.517c-8.636 0-15.517-6.88-15.517-15.517s7.027-15.517 15.517-15.517zm0 28.106c6.881 0 12.59-5.709 12.59-12.589 0-6.881-5.709-12.59-12.59-12.59-6.88 0-12.589 5.709-12.589 12.59 0 6.88 5.709 12.589 12.589 12.589zM.653 286.506c0-3.66 3.075-6.734 6.734-6.734 3.66 0 6.734 3.074 6.734 6.734s-3.074 6.734-6.734 6.734-6.734-2.928-6.734-6.734zm152.633-41.574a6.734 6.734 0 100 13.468 6.734 6.734 0 000-13.468zm37.093-79.051a6.733 6.733 0 00-6.733 6.734 6.733 6.733 0 1013.467 0 6.734 6.734 0 00-6.734-6.734zm-10.378 40.258a6.734 6.734 0 100 13.468 6.734 6.734 0 000-13.468zM19.098 111.717a6.734 6.734 0 100 13.468 6.734 6.734 0 000-13.468zm84.904-48.015c8.491 0 15.517 6.88 15.517 15.517s-6.88 15.517-15.517 15.517-15.517-6.88-15.517-15.517 7.027-15.517 15.517-15.517zm0 28.106c6.881 0 12.59-5.709 12.59-12.59 0-6.88-5.709-12.589-12.59-12.589-6.88 0-12.59 5.71-12.59 12.59s5.71 12.59 12.59 12.59zM67.407 31.206a6.734 6.734 0 100 13.467 6.734 6.734 0 000-13.467zM183.196 6.76c0-3.66 3.075-6.734 6.734-6.734 3.66 0 6.734 3.074 6.734 6.734s-3.074 6.734-6.734 6.734c-3.806-.147-6.734-3.075-6.734-6.734z"/></g></g></svg>