<svg width="301" height="377" fill="none" xmlns="http://www.w3.org/2000/svg"><g opacity=".4"><path d="M228.904 163.393H-17.027v2.928h245.931v-2.928zm-257.636-11.708h-2.928v-17.567c0-.439.146-.732.439-1.024l89.59-89.297c.292-.293.585-.439 1.024-.439h81.684v2.928H59.979l-88.711 88.418v16.981zM183.53 299.537H73.739c-.44 0-.732-.147-1.025-.44L-31.22 195.162c-.293-.293-.44-.585-.44-1.025v-14.638h2.929v14.053L74.324 296.609H183.53v2.928z" fill="#A30C33"/><path d="M110.331 205.848H51.483c-.44 0-.732-.146-1.025-.439l-39.524-39.232 2.049-2.049 39.086 38.792h58.262v2.928zM69.64 166.029l-2.05-2.049 39.378-39.671c.293-.293.586-.439 1.025-.439h59.433v2.928h-58.848l-38.939 39.231zm223.671-74.364H60.847c-.439 0-.732-.146-1.025-.44L36.547 67.659l2.05-2.05 22.836 23.13H293.31v2.927zM86.03 45.849l-2.05-2.05 38.061-38.06c.293-.293.586-.44 1.025-.44h121.941v2.928H123.652L86.03 45.85zm23.716 325.419l-58.994-58.994c-.293-.293-.44-.586-.44-1.025v-35.133h2.928v34.547l58.555 58.555-2.049 2.05zm-13.322-72.613l-2.049-2.05 38.793-39.085c.293-.293.585-.439 1.024-.439h147.413v2.927H134.924l-38.5 38.647zm136.874 41.871h-65.582c-.439 0-.732-.146-1.024-.439l-41.282-41.281 2.05-2.05 40.842 40.843h64.996v2.927z" fill="#A30C33"/><path d="M245.011 13.494a6.734 6.734 0 100-13.468 6.734 6.734 0 000 13.468zm-90.76 46.843c-8.49 0-15.517-6.88-15.517-15.517 0-8.636 6.881-15.517 15.517-15.517 8.637 0 15.518 6.88 15.518 15.517s-7.027 15.517-15.518 15.517zm0-28.106c-6.88 0-12.589 5.71-12.589 12.59s5.709 12.589 12.589 12.589c6.881 0 12.59-5.71 12.59-12.59s-5.709-12.589-12.59-12.589z" fill="#A30C33"/><path d="M154.246 51.552a6.733 6.733 0 006.733-6.734 6.733 6.733 0 10-13.467 0 6.734 6.734 0 006.734 6.734zM300.05 90.494c0 3.66-3.074 6.734-6.734 6.734s-6.734-3.074-6.734-6.734 3.074-6.734 6.734-6.734 6.734 2.928 6.734 6.734zm-132.629 41.574a6.734 6.734 0 100-13.468 6.734 6.734 0 000 13.468zm74.659 48.309c-8.491 0-15.518-6.881-15.518-15.517 0-8.637 6.881-15.518 15.518-15.518 8.636 0 15.517 6.881 15.517 15.518 0 8.636-7.027 15.517-15.517 15.517zm0-28.107c-6.881 0-12.59 5.709-12.59 12.59 0 6.88 5.709 12.589 12.59 12.589 6.88 0 12.589-5.709 12.589-12.589 0-6.881-5.709-12.59-12.589-12.59z" fill="#A30C33"/><path d="M242.074 171.591a6.734 6.734 0 100-13.468 6.734 6.734 0 000 13.468zm-131.75 39.528a6.734 6.734 0 100-13.468 6.734 6.734 0 000 13.468zm171.285 54.164a6.734 6.734 0 100-13.468 6.734 6.734 0 000 13.468zm-84.908 48.015c-8.491 0-15.517-6.88-15.517-15.517s6.88-15.517 15.517-15.517 15.517 6.88 15.517 15.517-7.027 15.517-15.517 15.517zm0-28.106c-6.881 0-12.59 5.709-12.59 12.589 0 6.881 5.709 12.59 12.59 12.59 6.88 0 12.589-5.709 12.589-12.59 0-6.88-5.709-12.589-12.589-12.589z" fill="#A30C33"/><path d="M203.433 297.779c0 3.66-3.075 6.734-6.734 6.734-3.66 0-6.734-3.074-6.734-6.734 0-3.659 3.074-6.733 6.734-6.733 3.659 0 6.734 3.074 6.734 6.733zm29.863 48.015a6.733 6.733 0 100-13.467 6.734 6.734 0 000 13.467zM117.511 370.24c0 3.66-3.075 6.734-6.734 6.734-3.66 0-6.734-3.074-6.734-6.734s3.074-6.734 6.734-6.734c3.806.147 6.734 3.074 6.734 6.734z" fill="#A30C33"/><g opacity=".4" fill="#000"><path d="M228.914 163.393h-248.86v2.928h248.86v-2.928zm-257.646-11.708h-2.928v-17.567c0-.439.146-.732.439-1.024l89.59-89.297c.292-.293.585-.439 1.024-.439h81.684v2.928H59.979l-88.711 88.418v16.981zM183.53 299.537H73.739c-.44 0-.732-.147-1.025-.44L-31.22 195.162c-.293-.293-.44-.585-.44-1.025v-14.638h2.929v14.053L74.324 296.609H183.53v2.928z"/><path d="M110.335 205.848H51.487c-.44 0-.732-.146-1.025-.439l-39.525-39.232 2.05-2.049 39.085 38.792h58.263v2.928zM69.64 166.029l-2.05-2.049 39.378-39.671c.293-.293.586-.439 1.025-.439h59.433v2.928h-58.848l-38.939 39.231zm223.679-74.364H60.855c-.44 0-.732-.146-1.025-.44L36.555 67.659l2.05-2.05 22.836 23.13h231.878v2.927zM86.038 45.849l-2.05-2.05L122.05 5.74c.293-.293.586-.44 1.025-.44h121.941v2.928H123.659L86.038 45.85zm23.712 325.419l-58.994-58.994c-.293-.293-.44-.586-.44-1.025v-35.133h2.928v34.547l58.555 58.555-2.049 2.05zm-13.326-72.613l-2.049-2.05 38.793-39.085c.293-.293.585-.439 1.024-.439h147.413v2.927H134.924l-38.5 38.647zm136.874 41.871h-65.582c-.439 0-.732-.146-1.024-.439l-41.282-41.281 2.05-2.05 40.842 40.843h64.996v2.927z"/><path d="M245.011 13.494a6.734 6.734 0 100-13.468 6.734 6.734 0 000 13.468zm-90.763 46.843c-8.491 0-15.518-6.88-15.518-15.517 0-8.636 6.881-15.517 15.518-15.517 8.636 0 15.517 6.88 15.517 15.517s-7.027 15.517-15.517 15.517zm0-28.106c-6.881 0-12.59 5.71-12.59 12.59s5.709 12.589 12.59 12.589c6.88 0 12.589-5.71 12.589-12.59s-5.709-12.589-12.589-12.589zm145.806 58.263c0 3.66-3.075 6.734-6.734 6.734-3.66 0-6.734-3.074-6.734-6.734s3.074-6.734 6.734-6.734c3.659 0 6.734 2.928 6.734 6.734zm-132.633 41.574a6.734 6.734 0 100-13.468 6.734 6.734 0 000 13.468zm74.663 48.309c-8.491 0-15.518-6.881-15.518-15.517 0-8.637 6.881-15.518 15.518-15.518 8.636 0 15.517 6.881 15.517 15.518 0 8.636-7.027 15.517-15.517 15.517zm0-28.107c-6.881 0-12.59 5.709-12.59 12.59 0 6.88 5.709 12.589 12.59 12.589 6.88 0 12.589-5.709 12.589-12.589 0-6.881-5.709-12.59-12.589-12.59zm-131.756 58.849a6.733 6.733 0 006.733-6.734 6.733 6.733 0 10-13.467 0 6.734 6.734 0 006.734 6.734zm171.281 54.164a6.734 6.734 0 100-13.468 6.734 6.734 0 000 13.468zm-84.904 48.015c-8.491 0-15.517-6.88-15.517-15.517s6.88-15.517 15.517-15.517 15.517 6.88 15.517 15.517-7.027 15.517-15.517 15.517zm0-28.106c-6.88 0-12.59 5.709-12.59 12.589 0 6.881 5.71 12.59 12.59 12.59s12.589-5.709 12.589-12.59c0-6.88-5.709-12.589-12.589-12.589zm36.595 60.602a6.733 6.733 0 100-13.467 6.734 6.734 0 000 13.467zM117.511 370.24c0 3.66-3.075 6.734-6.734 6.734-3.66 0-6.734-3.074-6.734-6.734s3.074-6.734 6.734-6.734c3.806.147 6.734 3.074 6.734 6.734z"/></g></g></svg>